<svg xmlns="http://www.w3.org/2000/svg" width="1440" height="643" viewBox="0 0 1440 643">
  <g id="Group_2944" data-name="Group 2944" transform="translate(0 -3760)">
    <rect id="Rectangle_9" data-name="Rectangle 9" width="1440" height="643" transform="translate(0 3760)" fill="#115240"/>
    <g id="_810_Converted_" data-name="810 [Converted]" transform="translate(-26.634 3763)" opacity="0.08">
      <g id="Group_408" data-name="Group 408" transform="translate(499.014 130.25)">
        <line id="Line_4" data-name="Line 4" x1="15.25" y1="14.3" transform="translate(0 0.48)" fill="none" stroke="#fff" stroke-linecap="round" stroke-linejoin="round" stroke-miterlimit="10" stroke-width="5"/>
        <line id="Line_5" data-name="Line 5" y1="15.26" x2="14.31" transform="translate(0.47)" fill="none" stroke="#fff" stroke-linecap="round" stroke-linejoin="round" stroke-miterlimit="10" stroke-width="5"/>
      </g>
      <g id="Group_409" data-name="Group 409" transform="translate(543.982 349.69)">
        <line id="Line_6" data-name="Line 6" x1="15.25" y1="14.31" transform="translate(0 0.47)" fill="none" stroke="#fff" stroke-linecap="round" stroke-linejoin="round" stroke-miterlimit="10" stroke-width="5"/>
        <line id="Line_7" data-name="Line 7" y1="15.25" x2="14.31" transform="translate(0.47)" fill="none" stroke="#fff" stroke-linecap="round" stroke-linejoin="round" stroke-miterlimit="10" stroke-width="5"/>
      </g>
      <g id="Group_410" data-name="Group 410" transform="translate(48.86 472.29)">
        <line id="Line_8" data-name="Line 8" x1="15.25" y1="14.31" transform="translate(0 0.47)" fill="none" stroke="#fff" stroke-linecap="round" stroke-linejoin="round" stroke-miterlimit="10" stroke-width="5"/>
        <line id="Line_9" data-name="Line 9" y1="15.25" x2="14.31" transform="translate(0.47)" fill="none" stroke="#fff" stroke-linecap="round" stroke-linejoin="round" stroke-miterlimit="10" stroke-width="5"/>
      </g>
      <g id="Group_411" data-name="Group 411" transform="translate(42.2 109.38)">
        <line id="Line_10" data-name="Line 10" x1="15.25" y1="14.3" transform="translate(0 0.47)" fill="none" stroke="#fff" stroke-linecap="round" stroke-linejoin="round" stroke-miterlimit="10" stroke-width="5"/>
        <line id="Line_11" data-name="Line 11" y1="15.25" x2="14.31" transform="translate(0.47)" fill="none" stroke="#fff" stroke-linecap="round" stroke-linejoin="round" stroke-miterlimit="10" stroke-width="5"/>
      </g>
      <g id="Group_412" data-name="Group 412" transform="translate(1442.748 129.88)">
        <line id="Line_12" data-name="Line 12" x1="15.26" y1="14.31" transform="translate(0 0.47)" fill="none" stroke="#fff" stroke-linecap="round" stroke-linejoin="round" stroke-miterlimit="10" stroke-width="5"/>
        <line id="Line_13" data-name="Line 13" y1="15.25" x2="14.31" transform="translate(0.47)" fill="none" stroke="#fff" stroke-linecap="round" stroke-linejoin="round" stroke-miterlimit="10" stroke-width="5"/>
      </g>
      <g id="Group_413" data-name="Group 413" transform="translate(980.907 207.69)">
        <line id="Line_14" data-name="Line 14" x1="15.26" y1="14.3" transform="translate(0 0.47)" fill="none" stroke="#fff" stroke-linecap="round" stroke-linejoin="round" stroke-miterlimit="10" stroke-width="5"/>
        <line id="Line_15" data-name="Line 15" y1="15.25" x2="14.3" transform="translate(0.48)" fill="none" stroke="#fff" stroke-linecap="round" stroke-linejoin="round" stroke-miterlimit="10" stroke-width="5"/>
      </g>
      <g id="Group_414" data-name="Group 414" transform="translate(1171.775 377.5)">
        <line id="Line_16" data-name="Line 16" x1="15.25" y1="14.3" transform="translate(0 0.47)" fill="none" stroke="#fff" stroke-linecap="round" stroke-linejoin="round" stroke-miterlimit="10" stroke-width="5"/>
        <line id="Line_17" data-name="Line 17" y1="15.25" x2="14.31" transform="translate(0.47)" fill="none" stroke="#fff" stroke-linecap="round" stroke-linejoin="round" stroke-miterlimit="10" stroke-width="5"/>
      </g>
      <g id="Group_415" data-name="Group 415" transform="translate(1141.361 515.83)">
        <line id="Line_18" data-name="Line 18" x1="15.25" y1="14.3" transform="translate(0 0.47)" fill="none" stroke="#fff" stroke-linecap="round" stroke-linejoin="round" stroke-miterlimit="10" stroke-width="5"/>
        <line id="Line_19" data-name="Line 19" y1="15.25" x2="14.31" transform="translate(0.47)" fill="none" stroke="#fff" stroke-linecap="round" stroke-linejoin="round" stroke-miterlimit="10" stroke-width="5"/>
      </g>
      <path id="Path_786" data-name="Path 786" d="M345.52,167.93l-10.5-18.17-10.47,18.18-10.48,18.17,20.97-.02,20.98-.01Z" transform="translate(456.518)" fill="none" stroke="#fff" stroke-linecap="round" stroke-linejoin="round" stroke-miterlimit="10" stroke-width="5"/>
      <path id="Path_787" data-name="Path 787" d="M310.8,389.93l-10.5-18.16-10.47,18.17-10.48,18.17,20.97-.01,20.98-.01Z" transform="translate(399.338)" fill="none" stroke="#fff" stroke-linecap="round" stroke-linejoin="round" stroke-miterlimit="10" stroke-width="5"/>
      <path id="Path_788" data-name="Path 788" d="M431.15,458.1l-10.51-18.16-10.46,18.17L399.7,476.29l20.97-.02,20.98-.01Z" transform="translate(597.541)" fill="none" stroke="#fff" stroke-linecap="round" stroke-linejoin="round" stroke-miterlimit="10" stroke-width="5"/>
      <path id="Path_789" data-name="Path 789" d="M500.36,318.67l5.42-20.27-20.25,5.45-20.26,5.44,14.84,14.82,14.84,14.83Z" transform="translate(703.583)" fill="none" stroke="#fff" stroke-linecap="round" stroke-linejoin="round" stroke-miterlimit="10" stroke-width="5"/>
      <path id="Path_790" data-name="Path 790" d="M155.44,83.38l5.41-20.27L140.6,68.56,120.34,74l14.84,14.82,14.84,14.83Z" fill="none" stroke="#fff" stroke-linecap="round" stroke-linejoin="round" stroke-miterlimit="10" stroke-width="5"/>
      <path id="Path_791" data-name="Path 791" d="M141.07,521.29l5.42-20.27-20.25,5.45-20.26,5.44,14.84,14.82,14.84,14.83Z" fill="none" stroke="#fff" stroke-linecap="round" stroke-linejoin="round" stroke-miterlimit="10" stroke-width="5"/>
      <path id="Path_792" data-name="Path 792" d="M521.62,106.02l18.16-10.5L521.61,85.05,503.43,74.57l.02,20.97.01,20.98Z" transform="translate(858.128)" fill="none" stroke="#fff" stroke-linecap="round" stroke-linejoin="round" stroke-miterlimit="10" stroke-width="5"/>
      <path id="Path_793" data-name="Path 793" d="M140.61,315.57l18.16-10.5L140.6,294.6l-18.18-10.48.02,20.98.01,20.97Z" transform="translate(139.393)" fill="none" stroke="#fff" stroke-linecap="round" stroke-linejoin="round" stroke-miterlimit="10" stroke-width="5"/>
      <path id="Path_794" data-name="Path 794" d="M380.97,281.23a15.91,15.91,0,1,1-15.91-15.91A15.912,15.912,0,0,1,380.97,281.23Z" transform="translate(504.483)" fill="none" stroke="#fff" stroke-linecap="round" stroke-linejoin="round" stroke-miterlimit="10" stroke-width="5"/>
      <path id="Path_795" data-name="Path 795" d="M300.56,103.65a15.91,15.91,0,1,1-15.91-15.91A15.912,15.912,0,0,1,300.56,103.65Z" transform="translate(374.582)" fill="none" stroke="#fff" stroke-linecap="round" stroke-linejoin="round" stroke-miterlimit="10" stroke-width="5"/>
      <path id="Path_796" data-name="Path 796" d="M310.72,573.3a15.91,15.91,0,1,1-15.91-15.91A15.912,15.912,0,0,1,310.72,573.3Z" transform="translate(390.995)" fill="none" stroke="#fff" stroke-linecap="round" stroke-linejoin="round" stroke-miterlimit="10" stroke-width="5"/>
      <path id="Path_797" data-name="Path 797" d="M353.28,549.51a15.91,15.91,0,0,1,31.82,0" transform="translate(511.155)" fill="none" stroke="#fff" stroke-linecap="round" stroke-linejoin="round" stroke-miterlimit="10" stroke-width="5"/>
      <path id="Path_798" data-name="Path 798" d="M226.27,305.1a15.91,15.91,0,1,1,31.82,0" transform="translate(305.972)" fill="none" stroke="#fff" stroke-linecap="round" stroke-linejoin="round" stroke-miterlimit="10" stroke-width="5"/>
      <path id="Path_799" data-name="Path 799" d="M58.85,175.89a15.84,15.84,0,1,1,31.68,0" fill="none" stroke="#fff" stroke-linecap="round" stroke-linejoin="round" stroke-miterlimit="10" stroke-width="5"/>
      <path id="Path_800" data-name="Path 800" d="M459.97,201.95a15.84,15.84,0,1,1,0-31.68" transform="translate(638.679)" fill="none" stroke="#fff" stroke-linecap="round" stroke-linejoin="round" stroke-miterlimit="10" stroke-width="5"/>
      <path id="Path_801" data-name="Path 801" d="M76.79,573.22a15.84,15.84,0,1,1,0-31.68" fill="none" stroke="#fff" stroke-linecap="round" stroke-linejoin="round" stroke-miterlimit="10" stroke-width="5"/>
      <path id="Path_802" data-name="Path 802" d="M247.55,67.13a15.84,15.84,0,1,1,0-31.68" transform="translate(305.497)" fill="none" stroke="#fff" stroke-linecap="round" stroke-linejoin="round" stroke-miterlimit="10" stroke-width="5"/>
      <path id="Path_803" data-name="Path 803" d="M84.75,405.85a15.91,15.91,0,1,1-15.91-15.91A15.912,15.912,0,0,1,84.75,405.85Z" fill="none" stroke="#fff" stroke-linecap="round" stroke-linejoin="round" stroke-miterlimit="10" stroke-width="5"/>
      <path id="Path_804" data-name="Path 804" d="M575.47,424.03a15.91,15.91,0,1,1-15.91-15.91A15.912,15.912,0,0,1,575.47,424.03Z" transform="translate(858.128)" fill="none" stroke="#fff" stroke-linecap="round" stroke-linejoin="round" stroke-miterlimit="10" stroke-width="5"/>
      <rect id="Rectangle_108" data-name="Rectangle 108" width="31.65" height="31.65" transform="translate(1389.578 170.28)" stroke-width="5" stroke="#fff" stroke-linecap="round" stroke-linejoin="round" stroke-miterlimit="10" fill="none"/>
      <rect id="Rectangle_109" data-name="Rectangle 109" width="31.65" height="31.65" transform="translate(394.31 186.11)" stroke-width="5" stroke="#fff" stroke-linecap="round" stroke-linejoin="round" stroke-miterlimit="10" fill="none"/>
      <rect id="Rectangle_110" data-name="Rectangle 110" width="31.65" height="31.65" transform="translate(390.152 388.2)" stroke-width="5" stroke="#fff" stroke-linecap="round" stroke-linejoin="round" stroke-miterlimit="10" fill="none"/>
      <rect id="Rectangle_111" data-name="Rectangle 111" width="31.65" height="31.65" transform="translate(1389.578 541.56)" stroke-width="5" stroke="#fff" stroke-linecap="round" stroke-linejoin="round" stroke-miterlimit="10" fill="none"/>
      <rect id="Rectangle_112" data-name="Rectangle 112" width="31.65" height="31.65" transform="translate(986.809 35.46)" stroke-width="5" stroke="#fff" stroke-linecap="round" stroke-linejoin="round" stroke-miterlimit="10" fill="none"/>
      <g id="Group_416" data-name="Group 416" transform="translate(855.565 345.06)">
        <path id="Path_805" data-name="Path 805" d="M354.66,357.32c-6.91,0-5.72-12.25-14.54-12.25" transform="translate(-340.12 -345.06)" fill="none" stroke="#fff" stroke-linecap="round" stroke-linejoin="round" stroke-miterlimit="10" stroke-width="5"/>
        <path id="Path_806" data-name="Path 806" d="M383.73,357.32c-6.91,0-5.72-12.25-14.54-12.25" transform="translate(-340.12 -345.06)" fill="none" stroke="#fff" stroke-linecap="round" stroke-linejoin="round" stroke-miterlimit="10" stroke-width="5"/>
        <path id="Path_807" data-name="Path 807" d="M354.66,357.32c6.91,0,5.72-12.25,14.54-12.25" transform="translate(-340.12 -345.06)" fill="none" stroke="#fff" stroke-linecap="round" stroke-linejoin="round" stroke-miterlimit="10" stroke-width="5"/>
        <path id="Path_808" data-name="Path 808" d="M398.27,345.06" transform="translate(-340.12 -345.06)" fill="none" stroke="#fff" stroke-linecap="round" stroke-linejoin="round" stroke-miterlimit="10" stroke-width="5"/>
        <path id="Path_809" data-name="Path 809" d="M383.73,357.32c6.91,0,5.72-12.25,14.54-12.25" transform="translate(-340.12 -345.06)" fill="none" stroke="#fff" stroke-linecap="round" stroke-linejoin="round" stroke-miterlimit="10" stroke-width="5"/>
      </g>
      <g id="Group_417" data-name="Group 417" transform="translate(1079.157 573.29)">
        <path id="Path_810" data-name="Path 810" d="M437.48,585.55c-6.91,0-5.72-12.26-14.54-12.26" transform="translate(-422.94 -573.29)" fill="none" stroke="#fff" stroke-linecap="round" stroke-linejoin="round" stroke-miterlimit="10" stroke-width="5"/>
        <path id="Path_811" data-name="Path 811" d="M466.55,585.55c-6.91,0-5.72-12.25-14.54-12.25" transform="translate(-422.94 -573.29)" fill="none" stroke="#fff" stroke-linecap="round" stroke-linejoin="round" stroke-miterlimit="10" stroke-width="5"/>
        <path id="Path_812" data-name="Path 812" d="M437.48,585.55c6.91,0,5.72-12.25,14.54-12.25" transform="translate(-422.94 -573.29)" fill="none" stroke="#fff" stroke-linecap="round" stroke-linejoin="round" stroke-miterlimit="10" stroke-width="5"/>
        <path id="Path_813" data-name="Path 813" d="M481.08,573.3" transform="translate(-422.94 -573.29)" fill="none" stroke="#fff" stroke-linecap="round" stroke-linejoin="round" stroke-miterlimit="10" stroke-width="5"/>
        <path id="Path_814" data-name="Path 814" d="M466.55,585.55c6.91,0,5.72-12.26,14.54-12.25" transform="translate(-422.94 -573.29)" fill="none" stroke="#fff" stroke-linecap="round" stroke-linejoin="round" stroke-miterlimit="10" stroke-width="5"/>
      </g>
      <g id="Group_418" data-name="Group 418" transform="translate(1320.708 244.26)">
        <path id="Path_815" data-name="Path 815" d="M477.12,256.51c-6.91,0-5.72-12.25-14.54-12.25" transform="translate(-462.58 -244.26)" fill="none" stroke="#fff" stroke-linecap="round" stroke-linejoin="round" stroke-miterlimit="10" stroke-width="5"/>
        <path id="Path_816" data-name="Path 816" d="M506.19,256.51c-6.91,0-5.72-12.25-14.54-12.25" transform="translate(-462.58 -244.26)" fill="none" stroke="#fff" stroke-linecap="round" stroke-linejoin="round" stroke-miterlimit="10" stroke-width="5"/>
        <path id="Path_817" data-name="Path 817" d="M477.12,256.51c6.91,0,5.72-12.25,14.54-12.25" transform="translate(-462.58 -244.26)" fill="none" stroke="#fff" stroke-linecap="round" stroke-linejoin="round" stroke-miterlimit="10" stroke-width="5"/>
        <path id="Path_818" data-name="Path 818" d="M520.73,244.26" transform="translate(-462.58 -244.26)" fill="none" stroke="#fff" stroke-linecap="round" stroke-linejoin="round" stroke-miterlimit="10" stroke-width="5"/>
        <path id="Path_819" data-name="Path 819" d="M506.19,256.51c6.91,0,5.72-12.25,14.54-12.25" transform="translate(-462.58 -244.26)" fill="none" stroke="#fff" stroke-linecap="round" stroke-linejoin="round" stroke-miterlimit="10" stroke-width="5"/>
      </g>
      <g id="Group_419" data-name="Group 419" transform="translate(58.3 229.45)">
        <path id="Path_820" data-name="Path 820" d="M72.84,241.7c-6.91,0-5.72-12.25-14.54-12.25" transform="translate(-58.3 -229.45)" fill="none" stroke="#fff" stroke-linecap="round" stroke-linejoin="round" stroke-miterlimit="10" stroke-width="5"/>
        <path id="Path_821" data-name="Path 821" d="M101.91,241.7c-6.91,0-5.72-12.25-14.54-12.25" transform="translate(-58.3 -229.45)" fill="none" stroke="#fff" stroke-linecap="round" stroke-linejoin="round" stroke-miterlimit="10" stroke-width="5"/>
        <path id="Path_822" data-name="Path 822" d="M72.84,241.7c6.91,0,5.72-12.25,14.54-12.25" transform="translate(-58.3 -229.45)" fill="none" stroke="#fff" stroke-linecap="round" stroke-linejoin="round" stroke-miterlimit="10" stroke-width="5"/>
        <path id="Path_823" data-name="Path 823" d="M116.45,229.45" transform="translate(-58.3 -229.45)" fill="none" stroke="#fff" stroke-linecap="round" stroke-linejoin="round" stroke-miterlimit="10" stroke-width="5"/>
        <path id="Path_824" data-name="Path 824" d="M101.91,241.7c6.91,0,5.72-12.25,14.54-12.25" transform="translate(-58.3 -229.45)" fill="none" stroke="#fff" stroke-linecap="round" stroke-linejoin="round" stroke-miterlimit="10" stroke-width="5"/>
      </g>
      <g id="Group_420" data-name="Group 420" transform="translate(824.605 34.04)">
        <path id="Path_825" data-name="Path 825" d="M357.06,77.65c0,6.91-12.25,5.72-12.25,14.54" transform="translate(-344.81 -34.04)" fill="none" stroke="#fff" stroke-linecap="round" stroke-linejoin="round" stroke-miterlimit="10" stroke-width="5"/>
        <path id="Path_826" data-name="Path 826" d="M357.06,48.58c0,6.91-12.25,5.72-12.25,14.54" transform="translate(-344.81 -34.04)" fill="none" stroke="#fff" stroke-linecap="round" stroke-linejoin="round" stroke-miterlimit="10" stroke-width="5"/>
        <path id="Path_827" data-name="Path 827" d="M357.06,77.65c0-6.91-12.25-5.72-12.25-14.54" transform="translate(-344.81 -34.04)" fill="none" stroke="#fff" stroke-linecap="round" stroke-linejoin="round" stroke-miterlimit="10" stroke-width="5"/>
        <path id="Path_828" data-name="Path 828" d="M344.81,34.04" transform="translate(-344.81 -34.04)" fill="none" stroke="#fff" stroke-linecap="round" stroke-linejoin="round" stroke-miterlimit="10" stroke-width="5"/>
        <path id="Path_829" data-name="Path 829" d="M357.06,48.58c0-6.91-12.25-5.72-12.25-14.54" transform="translate(-344.81 -34.04)" fill="none" stroke="#fff" stroke-linecap="round" stroke-linejoin="round" stroke-miterlimit="10" stroke-width="5"/>
      </g>
      <g id="Group_421" data-name="Group 421" transform="translate(596.578 186.11)">
        <path id="Path_830" data-name="Path 830" d="M267.92,229.72c0,6.91-12.25,5.72-12.25,14.54" transform="translate(-255.67 -186.11)" fill="none" stroke="#fff" stroke-linecap="round" stroke-linejoin="round" stroke-miterlimit="10" stroke-width="5"/>
        <path id="Path_831" data-name="Path 831" d="M267.92,200.65c0,6.91-12.25,5.72-12.25,14.54" transform="translate(-255.67 -186.11)" fill="none" stroke="#fff" stroke-linecap="round" stroke-linejoin="round" stroke-miterlimit="10" stroke-width="5"/>
        <path id="Path_832" data-name="Path 832" d="M267.92,229.72c0-6.91-12.25-5.72-12.25-14.54" transform="translate(-255.67 -186.11)" fill="none" stroke="#fff" stroke-linecap="round" stroke-linejoin="round" stroke-miterlimit="10" stroke-width="5"/>
        <path id="Path_833" data-name="Path 833" d="M255.67,186.11" transform="translate(-255.67 -186.11)" fill="none" stroke="#fff" stroke-linecap="round" stroke-linejoin="round" stroke-miterlimit="10" stroke-width="5"/>
        <path id="Path_834" data-name="Path 834" d="M267.92,200.65c0-6.91-12.25-5.72-12.25-14.54" transform="translate(-255.67 -186.11)" fill="none" stroke="#fff" stroke-linecap="round" stroke-linejoin="round" stroke-miterlimit="10" stroke-width="5"/>
      </g>
      <g id="Group_422" data-name="Group 422" transform="translate(1355.428 429.04)">
        <path id="Path_835" data-name="Path 835" d="M509.56,472.65c0,6.91-12.25,5.72-12.25,14.54" transform="translate(-497.3 -429.04)" fill="none" stroke="#fff" stroke-linecap="round" stroke-linejoin="round" stroke-miterlimit="10" stroke-width="5"/>
        <path id="Path_836" data-name="Path 836" d="M509.56,443.58c0,6.91-12.25,5.72-12.25,14.54" transform="translate(-497.3 -429.04)" fill="none" stroke="#fff" stroke-linecap="round" stroke-linejoin="round" stroke-miterlimit="10" stroke-width="5"/>
        <path id="Path_837" data-name="Path 837" d="M509.56,472.65c0-6.91-12.25-5.72-12.25-14.54" transform="translate(-497.3 -429.04)" fill="none" stroke="#fff" stroke-linecap="round" stroke-linejoin="round" stroke-miterlimit="10" stroke-width="5"/>
        <path id="Path_838" data-name="Path 838" d="M497.3,429.04" transform="translate(-497.3 -429.04)" fill="none" stroke="#fff" stroke-linecap="round" stroke-linejoin="round" stroke-miterlimit="10" stroke-width="5"/>
        <path id="Path_839" data-name="Path 839" d="M509.56,443.58c0-6.91-12.25-5.72-12.25-14.54" transform="translate(-497.3 -429.04)" fill="none" stroke="#fff" stroke-linecap="round" stroke-linejoin="round" stroke-miterlimit="10" stroke-width="5"/>
      </g>
      <g id="Group_423" data-name="Group 423" transform="translate(447.774 451.95)">
        <path id="Path_840" data-name="Path 840" d="M209.75,495.56c0,6.91-12.25,5.72-12.25,14.54" transform="translate(-197.5 -451.95)" fill="none" stroke="#fff" stroke-linecap="round" stroke-linejoin="round" stroke-miterlimit="10" stroke-width="5"/>
        <path id="Path_841" data-name="Path 841" d="M209.75,466.49c0,6.91-12.25,5.72-12.25,14.54" transform="translate(-197.5 -451.95)" fill="none" stroke="#fff" stroke-linecap="round" stroke-linejoin="round" stroke-miterlimit="10" stroke-width="5"/>
        <path id="Path_842" data-name="Path 842" d="M209.75,495.56c0-6.91-12.25-5.72-12.25-14.54" transform="translate(-197.5 -451.95)" fill="none" stroke="#fff" stroke-linecap="round" stroke-linejoin="round" stroke-miterlimit="10" stroke-width="5"/>
        <path id="Path_843" data-name="Path 843" d="M197.5,451.95" transform="translate(-197.5 -451.95)" fill="none" stroke="#fff" stroke-linecap="round" stroke-linejoin="round" stroke-miterlimit="10" stroke-width="5"/>
        <path id="Path_844" data-name="Path 844" d="M209.75,466.49c0-6.91-12.25-5.72-12.25-14.54" transform="translate(-197.5 -451.95)" fill="none" stroke="#fff" stroke-linecap="round" stroke-linejoin="round" stroke-miterlimit="10" stroke-width="5"/>
      </g>
      <line id="Line_20" data-name="Line 20" x2="35.87" transform="translate(963.518 389.94)" fill="none" stroke="#fff" stroke-linecap="round" stroke-linejoin="round" stroke-miterlimit="10" stroke-width="5"/>
      <line id="Line_21" data-name="Line 21" x2="35.86" transform="translate(36.87 286.29)" fill="none" stroke="#fff" stroke-linecap="round" stroke-linejoin="round" stroke-miterlimit="10" stroke-width="5"/>
      <line id="Line_22" data-name="Line 22" x2="35.87" transform="translate(970.561 119.56)" fill="none" stroke="#fff" stroke-linecap="round" stroke-linejoin="round" stroke-miterlimit="10" stroke-width="5"/>
      <line id="Line_23" data-name="Line 23" x2="35.87" transform="translate(1391.688 38.61)" fill="none" stroke="#fff" stroke-linecap="round" stroke-linejoin="round" stroke-miterlimit="10" stroke-width="5"/>
      <line id="Line_24" data-name="Line 24" x2="35.87" transform="translate(412.633 573.22)" fill="none" stroke="#fff" stroke-linecap="round" stroke-linejoin="round" stroke-miterlimit="10" stroke-width="5"/>
      <line id="Line_25" data-name="Line 25" y1="25.37" x2="25.36" transform="translate(647.207 478.56)" fill="none" stroke="#fff" stroke-linecap="round" stroke-linejoin="round" stroke-miterlimit="10" stroke-width="5"/>
      <line id="Line_26" data-name="Line 26" y1="25.36" x2="25.36" transform="translate(62.01 38.61)" fill="none" stroke="#fff" stroke-linecap="round" stroke-linejoin="round" stroke-miterlimit="10" stroke-width="5"/>
      <line id="Line_27" data-name="Line 27" y1="25.36" x2="25.36" transform="translate(1409.628 298.62)" fill="none" stroke="#fff" stroke-linecap="round" stroke-linejoin="round" stroke-miterlimit="10" stroke-width="5"/>
      <g id="Group_432" data-name="Group 432" transform="translate(59.68 47.4)" opacity="0.3">
        <path id="Path_845" data-name="Path 845" d="M368.34,181.29l-10.51-18.17-10.46,18.17-10.48,18.18,20.97-.02,20.98-.01Z" transform="translate(417.946 -47.4)" fill="none" stroke="#fff" stroke-miterlimit="10" stroke-width="1"/>
        <path id="Path_846" data-name="Path 846" d="M333.62,403.29l-10.5-18.16L312.65,403.3l-10.48,18.17,20.97-.02h20.98Z" transform="translate(358.125 -47.4)" fill="none" stroke="#fff" stroke-miterlimit="10" stroke-width="1"/>
        <path id="Path_847" data-name="Path 847" d="M453.96,471.46l-10.5-18.16-10.47,18.17-10.48,18.18,20.98-.02,20.97-.01Z" transform="translate(565.468 -47.4)" fill="none" stroke="#fff" stroke-miterlimit="10" stroke-width="1"/>
        <path id="Path_848" data-name="Path 848" d="M523.18,332.03l5.42-20.27-20.25,5.45-20.27,5.44,14.85,14.82,14.84,14.83Z" transform="translate(798.448 -47.4)" fill="none" stroke="#fff" stroke-miterlimit="10" stroke-width="1"/>
        <path id="Path_849" data-name="Path 849" d="M178.25,96.74l5.42-20.27-20.25,5.45-20.26,5.44L158,102.18,172.84,117Z" transform="translate(83.739 -47.4)" fill="none" stroke="#fff" stroke-miterlimit="10" stroke-width="1"/>
        <path id="Path_850" data-name="Path 850" d="M163.89,534.65l5.42-20.27-20.25,5.45-20.27,5.44,14.85,14.82,14.84,14.83Z" transform="translate(-59.68 -47.4)" fill="none" stroke="#fff" stroke-miterlimit="10" stroke-width="1"/>
        <path id="Path_851" data-name="Path 851" d="M544.43,119.38l18.16-10.5L544.42,98.41,526.25,87.93l.01,20.97.01,20.98Z" transform="translate(798.448 -47.4)" fill="none" stroke="#fff" stroke-miterlimit="10" stroke-width="1"/>
        <path id="Path_852" data-name="Path 852" d="M163.43,328.93l18.16-10.5-18.17-10.47-18.18-10.48.02,20.97.01,20.98Z" transform="translate(86.099 -47.4)" fill="none" stroke="#fff" stroke-miterlimit="10" stroke-width="1"/>
        <path id="Path_853" data-name="Path 853" d="M403.78,294.59a15.91,15.91,0,1,1-15.91-15.91A15.912,15.912,0,0,1,403.78,294.59Z" transform="translate(467.646 -47.4)" fill="none" stroke="#fff" stroke-miterlimit="10" stroke-width="1"/>
        <path id="Path_854" data-name="Path 854" d="M323.38,117a15.91,15.91,0,1,1-15.91-15.91A15.906,15.906,0,0,1,323.38,117Z" transform="translate(331.88 -47.4)" fill="none" stroke="#fff" stroke-miterlimit="10" stroke-width="1"/>
        <path id="Path_855" data-name="Path 855" d="M333.54,586.66a15.91,15.91,0,1,1-15.91-15.91A15.912,15.912,0,0,1,333.54,586.66Z" transform="translate(349.036 -47.4)" fill="none" stroke="#fff" stroke-miterlimit="10" stroke-width="1"/>
        <path id="Path_856" data-name="Path 856" d="M376.1,562.87a15.91,15.91,0,0,1,31.82,0" transform="translate(474.637 -47.4)" fill="none" stroke="#fff" stroke-miterlimit="10" stroke-width="1"/>
        <path id="Path_857" data-name="Path 857" d="M249.08,318.46a15.91,15.91,0,1,1,31.82,0" transform="translate(260.147 -47.4)" fill="none" stroke="#fff" stroke-miterlimit="10" stroke-width="1"/>
        <path id="Path_858" data-name="Path 858" d="M81.67,189.25a15.84,15.84,0,1,1,31.68,0" transform="translate(-59.68 -47.4)" fill="none" stroke="#fff" stroke-miterlimit="10" stroke-width="1"/>
        <path id="Path_859" data-name="Path 859" d="M482.79,215.31a15.84,15.84,0,1,1,0-31.68" transform="translate(607.056 -47.4)" fill="none" stroke="#fff" stroke-miterlimit="10" stroke-width="1"/>
        <path id="Path_860" data-name="Path 860" d="M99.61,586.58a15.84,15.84,0,1,1,0-31.68" transform="translate(-59.68 -47.4)" fill="none" stroke="#fff" stroke-miterlimit="10" stroke-width="1"/>
        <path id="Path_861" data-name="Path 861" d="M270.37,80.49a15.84,15.84,0,1,1,0-31.68" transform="translate(259.247 -47.4)" fill="none" stroke="#fff" stroke-miterlimit="10" stroke-width="1"/>
        <path id="Path_862" data-name="Path 862" d="M107.56,419.21A15.91,15.91,0,1,1,91.65,403.3,15.912,15.912,0,0,1,107.56,419.21Z" transform="translate(-59.68 -47.4)" fill="none" stroke="#fff" stroke-miterlimit="10" stroke-width="1"/>
        <path id="Path_863" data-name="Path 863" d="M598.29,437.38a15.91,15.91,0,1,1-15.91-15.91A15.912,15.912,0,0,1,598.29,437.38Z" transform="translate(798.448 -47.4)" fill="none" stroke="#fff" stroke-miterlimit="10" stroke-width="1"/>
        <rect id="Rectangle_113" data-name="Rectangle 113" width="31.65" height="31.65" transform="translate(1352.718 136.24)" fill="none" stroke="#fff" stroke-miterlimit="10" stroke-width="1"/>
        <rect id="Rectangle_114" data-name="Rectangle 114" width="31.65" height="31.65" transform="translate(367.459 152.07)" fill="none" stroke="#fff" stroke-miterlimit="10" stroke-width="1"/>
        <rect id="Rectangle_115" data-name="Rectangle 115" width="31.65" height="31.65" transform="translate(363.185 354.16)" fill="none" stroke="#fff" stroke-miterlimit="10" stroke-width="1"/>
        <rect id="Rectangle_116" data-name="Rectangle 116" width="31.65" height="31.65" transform="translate(1352.718 507.52)" fill="none" stroke="#fff" stroke-miterlimit="10" stroke-width="1"/>
        <rect id="Rectangle_117" data-name="Rectangle 117" width="31.65" height="31.65" transform="translate(976.521 1.42)" fill="none" stroke="#fff" stroke-miterlimit="10" stroke-width="1"/>
        <g id="Group_424" data-name="Group 424" transform="translate(843.32 311.02)">
          <path id="Path_864" data-name="Path 864" d="M377.47,370.68c-6.91,0-5.72-12.25-14.54-12.25" transform="translate(-362.93 -358.42)" fill="none" stroke="#fff" stroke-miterlimit="10" stroke-width="1"/>
          <path id="Path_865" data-name="Path 865" d="M406.55,370.68c-6.91,0-5.72-12.25-14.54-12.25" transform="translate(-362.93 -358.42)" fill="none" stroke="#fff" stroke-miterlimit="10" stroke-width="1"/>
          <path id="Path_866" data-name="Path 866" d="M377.47,370.68c6.91,0,5.72-12.25,14.54-12.25" transform="translate(-362.93 -358.42)" fill="none" stroke="#fff" stroke-miterlimit="10" stroke-width="1"/>
          <path id="Path_867" data-name="Path 867" d="M421.08,358.42" transform="translate(-362.93 -358.42)" fill="none" stroke="#fff" stroke-miterlimit="10" stroke-width="1"/>
          <path id="Path_868" data-name="Path 868" d="M406.55,370.68c6.91,0,5.72-12.25,14.54-12.25" transform="translate(-362.93 -358.42)" fill="none" stroke="#fff" stroke-miterlimit="10" stroke-width="1"/>
        </g>
        <g id="Group_425" data-name="Group 425" transform="translate(1073.638 539.25)">
          <path id="Path_869" data-name="Path 869" d="M460.29,598.91c-6.91,0-5.72-12.26-14.54-12.26" transform="translate(-445.75 -586.65)" fill="none" stroke="#fff" stroke-miterlimit="10" stroke-width="1"/>
          <path id="Path_870" data-name="Path 870" d="M489.37,598.91c-6.91,0-5.72-12.25-14.54-12.25" transform="translate(-445.75 -586.65)" fill="none" stroke="#fff" stroke-miterlimit="10" stroke-width="1"/>
          <path id="Path_871" data-name="Path 871" d="M460.29,598.91c6.91,0,5.72-12.25,14.54-12.25" transform="translate(-445.75 -586.65)" fill="none" stroke="#fff" stroke-miterlimit="10" stroke-width="1"/>
          <path id="Path_872" data-name="Path 872" d="M503.9,586.66" transform="translate(-445.75 -586.65)" fill="none" stroke="#fff" stroke-miterlimit="10" stroke-width="1"/>
          <path id="Path_873" data-name="Path 873" d="M489.37,598.91c6.91,0,5.72-12.26,14.54-12.25" transform="translate(-445.75 -586.65)" fill="none" stroke="#fff" stroke-miterlimit="10" stroke-width="1"/>
        </g>
        <g id="Group_426" data-name="Group 426" transform="translate(1283.848 210.22)">
          <path id="Path_874" data-name="Path 874" d="M499.94,269.87c-6.91,0-5.72-12.25-14.54-12.25" transform="translate(-485.4 -257.62)" fill="none" stroke="#fff" stroke-miterlimit="10" stroke-width="1"/>
          <path id="Path_875" data-name="Path 875" d="M529.01,269.87c-6.91,0-5.72-12.25-14.54-12.25" transform="translate(-485.4 -257.62)" fill="none" stroke="#fff" stroke-miterlimit="10" stroke-width="1"/>
          <path id="Path_876" data-name="Path 876" d="M499.94,269.87c6.91,0,5.72-12.25,14.54-12.25" transform="translate(-485.4 -257.62)" fill="none" stroke="#fff" stroke-miterlimit="10" stroke-width="1"/>
          <path id="Path_877" data-name="Path 877" d="M543.54,257.62" transform="translate(-485.4 -257.62)" fill="none" stroke="#fff" stroke-miterlimit="10" stroke-width="1"/>
          <path id="Path_878" data-name="Path 878" d="M529.01,269.87c6.91,0,5.72-12.25,14.54-12.25" transform="translate(-485.4 -257.62)" fill="none" stroke="#fff" stroke-miterlimit="10" stroke-width="1"/>
        </g>
        <g id="Group_427" data-name="Group 427" transform="translate(21.43 195.41)">
          <path id="Path_879" data-name="Path 879" d="M95.65,255.06c-6.91,0-5.72-12.25-14.54-12.25" transform="translate(-81.11 -242.81)" fill="none" stroke="#fff" stroke-miterlimit="10" stroke-width="1"/>
          <path id="Path_880" data-name="Path 880" d="M124.73,255.06c-6.91,0-5.72-12.25-14.54-12.25" transform="translate(-81.11 -242.81)" fill="none" stroke="#fff" stroke-miterlimit="10" stroke-width="1"/>
          <path id="Path_881" data-name="Path 881" d="M95.65,255.06c6.91,0,5.72-12.25,14.54-12.25" transform="translate(-81.11 -242.81)" fill="none" stroke="#fff" stroke-miterlimit="10" stroke-width="1"/>
          <path id="Path_882" data-name="Path 882" d="M139.26,242.81" transform="translate(-81.11 -242.81)" fill="none" stroke="#fff" stroke-miterlimit="10" stroke-width="1"/>
          <path id="Path_883" data-name="Path 883" d="M124.73,255.06c6.91,0,5.72-12.25,14.54-12.25" transform="translate(-81.11 -242.81)" fill="none" stroke="#fff" stroke-miterlimit="10" stroke-width="1"/>
        </g>
        <g id="Group_428" data-name="Group 428" transform="translate(808.681)">
          <path id="Path_884" data-name="Path 884" d="M379.88,91.01c0,6.91-12.25,5.72-12.25,14.54" transform="translate(-367.63 -47.4)" fill="none" stroke="#fff" stroke-miterlimit="10" stroke-width="1"/>
          <path id="Path_885" data-name="Path 885" d="M379.88,61.94c0,6.91-12.25,5.72-12.25,14.54" transform="translate(-367.63 -47.4)" fill="none" stroke="#fff" stroke-miterlimit="10" stroke-width="1"/>
          <path id="Path_886" data-name="Path 886" d="M379.88,91.01c0-6.91-12.25-5.72-12.25-14.54" transform="translate(-367.63 -47.4)" fill="none" stroke="#fff" stroke-miterlimit="10" stroke-width="1"/>
          <path id="Path_887" data-name="Path 887" d="M367.63,47.4" transform="translate(-367.63 -47.4)" fill="none" stroke="#fff" stroke-miterlimit="10" stroke-width="1"/>
          <path id="Path_888" data-name="Path 888" d="M379.88,61.94c0-6.91-12.25-5.72-12.25-14.54" transform="translate(-367.63 -47.4)" fill="none" stroke="#fff" stroke-miterlimit="10" stroke-width="1"/>
        </g>
        <g id="Group_429" data-name="Group 429" transform="translate(574.598 152.07)">
          <path id="Path_889" data-name="Path 889" d="M290.74,243.08c0,6.91-12.25,5.72-12.25,14.54" transform="translate(-278.49 -199.47)" fill="none" stroke="#fff" stroke-miterlimit="10" stroke-width="1"/>
          <path id="Path_890" data-name="Path 890" d="M290.74,214.01c0,6.91-12.25,5.72-12.25,14.54" transform="translate(-278.49 -199.47)" fill="none" stroke="#fff" stroke-miterlimit="10" stroke-width="1"/>
          <path id="Path_891" data-name="Path 891" d="M290.74,243.08c0-6.91-12.25-5.72-12.25-14.54" transform="translate(-278.49 -199.47)" fill="none" stroke="#fff" stroke-miterlimit="10" stroke-width="1"/>
          <path id="Path_892" data-name="Path 892" d="M278.49,199.47" transform="translate(-278.49 -199.47)" fill="none" stroke="#fff" stroke-miterlimit="10" stroke-width="1"/>
          <path id="Path_893" data-name="Path 893" d="M290.74,214.01c0-6.91-12.25-5.72-12.25-14.54" transform="translate(-278.49 -199.47)" fill="none" stroke="#fff" stroke-miterlimit="10" stroke-width="1"/>
        </g>
        <g id="Group_430" data-name="Group 430" transform="translate(1318.568 395)">
          <path id="Path_894" data-name="Path 894" d="M532.37,486.01c0,6.91-12.25,5.72-12.25,14.54" transform="translate(-520.12 -442.4)" fill="none" stroke="#fff" stroke-miterlimit="10" stroke-width="1"/>
          <path id="Path_895" data-name="Path 895" d="M532.37,456.94c0,6.91-12.25,5.72-12.25,14.54" transform="translate(-520.12 -442.4)" fill="none" stroke="#fff" stroke-miterlimit="10" stroke-width="1"/>
          <path id="Path_896" data-name="Path 896" d="M532.37,486.01c0-6.91-12.25-5.72-12.25-14.54" transform="translate(-520.12 -442.4)" fill="none" stroke="#fff" stroke-miterlimit="10" stroke-width="1"/>
          <path id="Path_897" data-name="Path 897" d="M520.12,442.4" transform="translate(-520.12 -442.4)" fill="none" stroke="#fff" stroke-miterlimit="10" stroke-width="1"/>
          <path id="Path_898" data-name="Path 898" d="M532.37,456.94c0-6.91-12.25-5.72-12.25-14.54" transform="translate(-520.12 -442.4)" fill="none" stroke="#fff" stroke-miterlimit="10" stroke-width="1"/>
        </g>
        <g id="Group_431" data-name="Group 431" transform="translate(421.821 417.91)">
          <path id="Path_899" data-name="Path 899" d="M232.57,508.92c0,6.91-12.25,5.72-12.25,14.54" transform="translate(-220.31 -465.31)" fill="none" stroke="#fff" stroke-miterlimit="10" stroke-width="1"/>
          <path id="Path_900" data-name="Path 900" d="M232.57,479.85c0,6.91-12.25,5.72-12.25,14.54" transform="translate(-220.31 -465.31)" fill="none" stroke="#fff" stroke-miterlimit="10" stroke-width="1"/>
          <path id="Path_901" data-name="Path 901" d="M232.57,508.92c0-6.91-12.25-5.72-12.25-14.54" transform="translate(-220.31 -465.31)" fill="none" stroke="#fff" stroke-miterlimit="10" stroke-width="1"/>
          <path id="Path_902" data-name="Path 902" d="M220.31,465.31" transform="translate(-220.31 -465.31)" fill="none" stroke="#fff" stroke-miterlimit="10" stroke-width="1"/>
          <path id="Path_903" data-name="Path 903" d="M232.57,479.85c0-6.91-12.25-5.72-12.25-14.54" transform="translate(-220.31 -465.31)" fill="none" stroke="#fff" stroke-miterlimit="10" stroke-width="1"/>
        </g>
        <line id="Line_28" data-name="Line 28" x2="35.87" transform="translate(952.876 355.9)" fill="none" stroke="#fff" stroke-miterlimit="10" stroke-width="1"/>
        <line id="Line_29" data-name="Line 29" x2="35.87" transform="translate(0 252.25)" fill="none" stroke="#fff" stroke-miterlimit="10" stroke-width="1"/>
        <line id="Line_30" data-name="Line 30" x2="35.87" transform="translate(960.117 85.52)" fill="none" stroke="#fff" stroke-miterlimit="10" stroke-width="1"/>
        <line id="Line_31" data-name="Line 31" x2="35.87" transform="translate(1354.828 4.57)" fill="none" stroke="#fff" stroke-miterlimit="10" stroke-width="1"/>
        <line id="Line_32" data-name="Line 32" x2="35.87" transform="translate(386.414 539.18)" fill="none" stroke="#fff" stroke-miterlimit="10" stroke-width="1"/>
        <line id="Line_33" data-name="Line 33" y1="25.37" x2="25.37" transform="translate(627.121 444.52)" fill="none" stroke="#fff" stroke-miterlimit="10" stroke-width="1"/>
        <line id="Line_34" data-name="Line 34" y1="25.36" x2="25.36" transform="translate(25.15 4.57)" fill="none" stroke="#fff" stroke-miterlimit="10" stroke-width="1"/>
        <line id="Line_35" data-name="Line 35" y1="25.36" x2="25.37" transform="translate(1372.758 264.58)" fill="none" stroke="#fff" stroke-miterlimit="10" stroke-width="1"/>
      </g>
      <path id="Path_904" data-name="Path 904" d="M363.45,474.86a6.269,6.269,0,1,1,1.96-8.64A6.267,6.267,0,0,1,363.45,474.86Z" transform="translate(494.124)" fill="none" stroke="#fff" stroke-linecap="round" stroke-linejoin="round" stroke-miterlimit="10" stroke-width="5"/>
      <path id="Path_905" data-name="Path 905" d="M314.06,302.45a6.269,6.269,0,1,1,1.96-8.64A6.267,6.267,0,0,1,314.06,302.45Z" transform="translate(417.134)" fill="none" stroke="#fff" stroke-linecap="round" stroke-linejoin="round" stroke-miterlimit="10" stroke-width="5"/>
      <path id="Path_906" data-name="Path 906" d="M88.17,355.47a6.269,6.269,0,1,1,1.96-8.64A6.267,6.267,0,0,1,88.17,355.47Z" fill="none" stroke="#fff" stroke-linecap="round" stroke-linejoin="round" stroke-miterlimit="10" stroke-width="5"/>
      <path id="Path_907" data-name="Path 907" d="M152.39,158.18a6.269,6.269,0,1,1,1.96-8.64A6.267,6.267,0,0,1,152.39,158.18Z" transform="translate(165.113)" fill="none" stroke="#fff" stroke-linecap="round" stroke-linejoin="round" stroke-miterlimit="10" stroke-width="5"/>
      <path id="Path_908" data-name="Path 908" d="M497.17,155.07a6.269,6.269,0,1,1,1.96-8.64A6.267,6.267,0,0,1,497.17,155.07Z" transform="translate(858.128)" fill="none" stroke="#fff" stroke-linecap="round" stroke-linejoin="round" stroke-miterlimit="10" stroke-width="5"/>
      <path id="Path_909" data-name="Path 909" d="M585.71,378.38a6.269,6.269,0,1,1,1.96-8.64A6.267,6.267,0,0,1,585.71,378.38Z" transform="translate(858.128)" fill="none" stroke="#fff" stroke-linecap="round" stroke-linejoin="round" stroke-miterlimit="10" stroke-width="5"/>
    </g>
  </g>
</svg>
