<svg id="_3071354" data-name="3071354" xmlns="http://www.w3.org/2000/svg" width="571.268" height="425.72" viewBox="0 0 571.268 425.72">
  <g id="Background_Complete" transform="translate(0 0)">
    <g id="Group_498" data-name="Group 498">
      <rect id="Rectangle_129" data-name="Rectangle 129" width="571.268" height="0.286" transform="translate(0 374.123)" fill="#ebebeb"/>
      <rect id="Rectangle_130" data-name="Rectangle 130" width="24.77" height="0.286" transform="translate(489.256 392.507)" fill="#ebebeb"/>
      <rect id="Rectangle_131" data-name="Rectangle 131" width="38.972" height="0.286" transform="translate(354.826 386.588)" fill="#ebebeb"/>
      <rect id="Rectangle_132" data-name="Rectangle 132" width="50.877" height="0.286" transform="translate(453.118 381.904)" fill="#ebebeb"/>
      <rect id="Rectangle_133" data-name="Rectangle 133" width="12.728" height="0.286" transform="translate(184.954 387.662)" fill="#ebebeb"/>
      <rect id="Rectangle_134" data-name="Rectangle 134" width="43.862" height="0.286" transform="translate(130.912 387.662)" fill="#ebebeb"/>
      <rect id="Rectangle_135" data-name="Rectangle 135" width="31.648" height="0.286" transform="translate(75.761 382.841)" fill="#ebebeb"/>
      <path id="Path_959" data-name="Path 959" d="M265.346,378.116H44.734a6.529,6.529,0,0,1-6.524-6.524V61.474a6.529,6.529,0,0,1,6.524-6.524H265.357a6.529,6.529,0,0,1,6.524,6.524V371.592A6.546,6.546,0,0,1,265.346,378.116ZM44.734,55.236A6.246,6.246,0,0,0,38.5,61.474V371.592a6.246,6.246,0,0,0,6.238,6.238H265.357a6.246,6.246,0,0,0,6.238-6.238V61.474a6.246,6.246,0,0,0-6.238-6.238Z" transform="translate(5.446 -54.95)" fill="#ebebeb"/>
      <path id="Path_960" data-name="Path 960" d="M481.647,378.116H261.024a6.529,6.529,0,0,1-6.524-6.524V61.474a6.529,6.529,0,0,1,6.524-6.524H481.647a6.529,6.529,0,0,1,6.524,6.524V371.592A6.529,6.529,0,0,1,481.647,378.116ZM261.024,55.236a6.246,6.246,0,0,0-6.238,6.238V371.592a6.246,6.246,0,0,0,6.238,6.238H481.647a6.246,6.246,0,0,0,6.238-6.238V61.474a6.246,6.246,0,0,0-6.238-6.238Z" transform="translate(36.275 -54.95)" fill="#ebebeb"/>
    </g>
    <g id="Group_523" data-name="Group 523" transform="translate(66.23 19.674)">
      <g id="Group_499" data-name="Group 499" transform="translate(0 33.396)">
        <path id="Path_961" data-name="Path 961" d="M115.346,180.591a23.89,23.89,0,0,0,0-47.781H112.41v47.781Z" transform="translate(-50.208 -96.923)" fill="#e0e0e0"/>
        <ellipse id="Ellipse_16" data-name="Ellipse 16" cx="23.89" cy="23.89" rx="23.89" ry="23.89" transform="translate(38.312 35.887)" fill="#f5f5f5"/>
        <path id="Path_962" data-name="Path 962" d="M115.44,163.088a32.021,32.021,0,0,1-31.98-31.98V112a3,3,0,1,1,6.01,0v19.1a26,26,0,0,0,25.97,25.97,3,3,0,0,1,0,6.01Z" transform="translate(-54.334 -100.317)" fill="#e0e0e0"/>
        <path id="Path_963" data-name="Path 963" d="M63.523,129.906h53.151a5.555,5.555,0,0,0,5.37-6.969l-4.616-17.412a5.542,5.542,0,0,0-5.37-4.125H68.139a5.562,5.562,0,0,0-5.37,4.125l-4.616,17.412A5.555,5.555,0,0,0,63.523,129.906Z" transform="translate(-57.968 -101.4)" fill="#f5f5f5"/>
      </g>
      <g id="Group_500" data-name="Group 500" transform="translate(337.383 33.396)">
        <path id="Path_964" data-name="Path 964" d="M410.645,180.591a23.89,23.89,0,1,0,0-47.781H407.72v47.781Z" transform="translate(-345.499 -96.923)" fill="#e0e0e0"/>
        <ellipse id="Ellipse_17" data-name="Ellipse 17" cx="23.89" cy="23.89" rx="23.89" ry="23.89" transform="translate(38.319 35.887)" fill="#f5f5f5"/>
        <path id="Path_965" data-name="Path 965" d="M410.74,163.088a32.021,32.021,0,0,1-31.98-31.98V112a3,3,0,1,1,6.01,0v19.1a26,26,0,0,0,25.97,25.97,3,3,0,1,1,0,6.01Z" transform="translate(-349.627 -100.317)" fill="#e0e0e0"/>
        <path id="Path_966" data-name="Path 966" d="M358.824,129.906h53.151a5.555,5.555,0,0,0,5.37-6.969l-4.616-17.412a5.542,5.542,0,0,0-5.37-4.125H363.428a5.562,5.562,0,0,0-5.37,4.125l-4.616,17.412A5.567,5.567,0,0,0,358.824,129.906Z" transform="translate(-353.261 -101.4)" fill="#f5f5f5"/>
      </g>
      <g id="Group_506" data-name="Group 506" transform="translate(1.271 199.612)">
        <g id="Group_501" data-name="Group 501" transform="translate(32.219)">
          <rect id="Rectangle_136" data-name="Rectangle 136" width="17.378" height="67.33" transform="translate(70.733 78.808) rotate(180)" fill="#e6e6e6"/>
          <path id="Path_967" data-name="Path 967" d="M92.75,325.681h57.664l8.706-78.8H101.456Z" transform="translate(-86.5 -246.88)" fill="#f0f0f0"/>
          <path id="Path_968" data-name="Path 968" d="M87.28,325.681h59.572l8.706-78.8H96Z" transform="translate(-87.28 -246.88)" fill="#f5f5f5"/>
          <path id="Path_969" data-name="Path 969" d="M141.836,318.7l7.335-66.381H99.585L92.25,318.7Z" transform="translate(-86.572 -246.105)" fill="#fff"/>
          <path id="Path_970" data-name="Path 970" d="M129.469,300.6l.3-2.708c1.839-16.658-8.558-31.5-22.062-31.5h0l-.3,2.708c-1.851,16.658,8.546,31.5,22.062,31.5Z" transform="translate(-84.442 -244.099)" fill="#f5f5f5"/>
        </g>
        <g id="Group_503" data-name="Group 503" transform="translate(0 78.803)">
          <g id="Group_502" data-name="Group 502" transform="translate(0 0)">
            <rect id="Rectangle_137" data-name="Rectangle 137" width="51.231" height="76.036" transform="translate(51.239 76.036) rotate(180)" fill="#e6e6e6"/>
            <path id="Path_971" data-name="Path 971" d="M64.233,384.229H59.08V369.57H69.637Z" transform="translate(-59.08 -308.195)" fill="#f0f0f0"/>
            <rect id="Rectangle_138" data-name="Rectangle 138" width="51.231" height="76.036" transform="translate(194.821 76.036) rotate(180)" fill="#e6e6e6"/>
            <rect id="Rectangle_139" data-name="Rectangle 139" width="148.084" height="67.033" transform="translate(148.088 67.041) rotate(180)" fill="#f0f0f0"/>
            <path id="Path_972" data-name="Path 972" d="M184.854,384.229h5.153V369.57H179.45Z" transform="translate(-41.923 -308.195)" fill="#f0f0f0"/>
            <rect id="Rectangle_140" data-name="Rectangle 140" width="140.086" height="27.055" transform="translate(144.089 31.248) rotate(180)" fill="#e6e6e6"/>
            <path id="Path_973" data-name="Path 973" d="M118.387,336.112h18.68a29.561,29.561,0,0,0,21.457-9.232H96.93A29.56,29.56,0,0,0,118.387,336.112Z" transform="translate(-53.685 -314.28)" fill="#f0f0f0"/>
            <rect id="Rectangle_141" data-name="Rectangle 141" width="140.086" height="27.055" transform="translate(144.089 62.671) rotate(180)" fill="#e6e6e6"/>
            <path id="Path_974" data-name="Path 974" d="M118.387,363.612h18.68a29.561,29.561,0,0,0,21.457-9.232H96.93A29.56,29.56,0,0,0,118.387,363.612Z" transform="translate(-53.685 -310.36)" fill="#f0f0f0"/>
          </g>
        </g>
        <g id="Group_505" data-name="Group 505" transform="translate(111.278 3.565)">
          <path id="Path_975" data-name="Path 975" d="M180.7,320.123h1.325c-.011-2.731.011-9.643.137-25.49.24-28.723.7-30.483.7-30.483L179.7,277.415C177.7,292.1,180.286,306.858,180.7,320.123Z" transform="translate(-153.272 -247.984)" fill="#e6e6e6"/>
          <path id="Path_976" data-name="Path 976" d="M181.285,275.072c-4.536-5.4-14.225-6.981-24.142-8.329-3.9-.526,10.237,8.375,17.138,14.693,5.37,4.913,8.8,6.273,10.271,11.163C185.318,286.5,185.193,279.733,181.285,275.072Z" transform="translate(-156.476 -247.617)" fill="#e6e6e6"/>
          <path id="Path_977" data-name="Path 977" d="M183.914,283.522c4.536-5.4,14.225-6.981,24.142-8.329,3.9-.526-10.237,8.375-17.138,14.693-5.37,4.913-8.8,6.273-10.271,11.163C179.881,294.959,180.006,288.183,183.914,283.522Z" transform="translate(-153.083 -246.413)" fill="#e6e6e6"/>
          <path id="Path_978" data-name="Path 978" d="M182.053,264.9c3.4-6.455,11.962-12.545,21.56-14.853,3.77-.9-8.729,11.928-13.482,20.211-3.69,6.432-8.592,13.985-9.346,19.412C179.63,278.917,178.648,271.354,182.053,264.9Z" transform="translate(-153.164 -250)" fill="#e6e6e6"/>
          <g id="Group_504" data-name="Group 504" transform="translate(18.56 62.93)">
            <path id="Path_979" data-name="Path 979" d="M182.436,316.982h0c-4.056,0-7.4-2.034-7.632-4.627l-.674-4.444h16.612l-.674,4.444C189.84,314.959,186.492,316.982,182.436,316.982Z" transform="translate(-172.519 -304.677)" fill="#f0f0f0"/>
            <path id="Path_980" data-name="Path 980" d="M192.029,310.027H173.257l-.537-4.947h19.846Z" transform="translate(-172.72 -305.08)" fill="#f0f0f0"/>
          </g>
        </g>
      </g>
      <g id="Group_512" data-name="Group 512" transform="translate(119.306)">
        <g id="Group_509" data-name="Group 509" transform="translate(4.061 9.625)">
          <g id="Group_508" data-name="Group 508">
            <g id="Group_507" data-name="Group 507">
              <rect id="Rectangle_142" data-name="Rectangle 142" width="183.046" height="166.959" transform="translate(187.15 166.959) rotate(180)" fill="#e6e6e6"/>
              <rect id="Rectangle_143" data-name="Rectangle 143" width="185.365" height="166.959" transform="translate(185.365 166.959) rotate(180)" fill="#f5f5f5"/>
              <rect id="Rectangle_144" data-name="Rectangle 144" width="152.003" height="170.58" transform="translate(177.962 7.479) rotate(90)" fill="#fafafa"/>
              <path id="Path_981" data-name="Path 981" d="M314.61,239.143l-67.135-152h-22.8l67.135,152Z" transform="translate(-157.573 -79.662)" fill="#fff"/>
              <path id="Path_982" data-name="Path 982" d="M288.1,239.143l-67.135-152h-15.7l67.135,152Z" transform="translate(-160.339 -79.662)" fill="#fff"/>
              <rect id="Rectangle_145" data-name="Rectangle 145" width="152.003" height="8.82" transform="translate(70.719 7.472) rotate(90)" fill="#e6e6e6"/>
              <rect id="Rectangle_146" data-name="Rectangle 146" width="152.003" height="8.82" transform="translate(129.353 7.472) rotate(90)" fill="#e6e6e6"/>
              <rect id="Rectangle_147" data-name="Rectangle 147" width="162.309" height="11.151" transform="translate(69.133 1.913) rotate(90)" fill="#f5f5f5"/>
              <rect id="Rectangle_148" data-name="Rectangle 148" width="162.309" height="11.151" transform="translate(127.767 1.913) rotate(90)" fill="#f5f5f5"/>
              <rect id="Rectangle_149" data-name="Rectangle 149" width="152.003" height="0.788" transform="translate(8.173 7.475) rotate(90)" fill="#e6e6e6"/>
            </g>
          </g>
        </g>
        <g id="Group_511" data-name="Group 511">
          <g id="Group_510" data-name="Group 510">
            <path id="Path_983" data-name="Path 983" d="M163.338,72.17h198.31a.953.953,0,0,1,.948.948h0a.953.953,0,0,1-.948.948H163.338a.953.953,0,0,1-.948-.948h0A.946.946,0,0,1,163.338,72.17Z" transform="translate(-162.39 -72.17)" fill="#e6e6e6"/>
            <path id="Path_984" data-name="Path 984" d="M329.911,78.347h0a1.3,1.3,0,0,0,1.291-1.291V74.291A1.3,1.3,0,0,0,329.911,73h0a1.3,1.3,0,0,0-1.291,1.291v2.765A1.3,1.3,0,0,0,329.911,78.347Z" transform="translate(-138.696 -72.052)" fill="#e6e6e6"/>
            <path id="Path_985" data-name="Path 985" d="M175.961,78.347h0a1.3,1.3,0,0,0,1.291-1.291V74.291A1.3,1.3,0,0,0,175.961,73h0a1.3,1.3,0,0,0-1.291,1.291v2.765A1.3,1.3,0,0,0,175.961,78.347Z" transform="translate(-160.639 -72.052)" fill="#e6e6e6"/>
          </g>
          <rect id="Rectangle_150" data-name="Rectangle 150" width="185.239" height="130.752" transform="translate(186.49 131.702) rotate(180)" fill="#e0e0e0" opacity="0.6"/>
        </g>
      </g>
      <g id="Group_522" data-name="Group 522" transform="translate(248.471 195.431)">
        <g id="Group_513" data-name="Group 513" transform="translate(36 14.133)">
          <path id="Path_986" data-name="Path 986" d="M345.041,287.048H313.107a6.149,6.149,0,0,1-6.147-6.147V266.117a6.149,6.149,0,0,1,6.147-6.147h31.934a6.149,6.149,0,0,1,6.147,6.147V280.9A6.149,6.149,0,0,1,345.041,287.048Z" transform="translate(-306.949 -254.966)" fill="#fafafa"/>
          <path id="Path_987" data-name="Path 987" d="M349.121,261.394h-40.1a2.067,2.067,0,0,1-2.068-2.068v-1.668a2.067,2.067,0,0,1,2.068-2.068h40.1a2.067,2.067,0,0,1,2.068,2.068v1.668A2.067,2.067,0,0,1,349.121,261.394Z" transform="translate(-306.95 -255.59)" fill="#e6e6e6"/>
        </g>
        <g id="Group_514" data-name="Group 514" transform="translate(36.651 76.241)">
          <path id="Path_988" data-name="Path 988" d="M307.52,309.95s.583,19.035,22.771,19.035,22.771-19.035,22.771-19.035Z" transform="translate(-307.52 -309.95)" fill="#f0f0f0"/>
        </g>
        <g id="Group_515" data-name="Group 515" transform="translate(87.243 76.241)">
          <path id="Path_989" data-name="Path 989" d="M351.8,309.95s.583,19.035,22.771,19.035,22.771-19.035,22.771-19.035Z" transform="translate(-351.8 -309.95)" fill="#f0f0f0"/>
        </g>
        <g id="Group_516" data-name="Group 516" transform="translate(69.465)">
          <path id="Path_990" data-name="Path 990" d="M388.58,288.579H344.695a8.458,8.458,0,0,1-8.455-8.455V257.685a8.458,8.458,0,0,1,8.455-8.455H388.58a8.458,8.458,0,0,1,8.455,8.455v22.439A8.465,8.465,0,0,1,388.58,288.579Z" transform="translate(-336.24 -242.363)" fill="#f0f0f0"/>
          <path id="Path_991" data-name="Path 991" d="M394.189,251.183H339.073a2.833,2.833,0,0,1-2.833-2.833v-2.3a2.833,2.833,0,0,1,2.833-2.833h55.116a2.833,2.833,0,0,1,2.833,2.833v2.3A2.833,2.833,0,0,1,394.189,251.183Z" transform="translate(-336.24 -243.22)" fill="#f5f5f5"/>
        </g>
        <g id="Group_521" data-name="Group 521" transform="translate(0 46.216)">
          <rect id="Rectangle_151" data-name="Rectangle 151" width="5.758" height="94.419" transform="translate(25.695 112.806) rotate(180)" fill="#e6e6e6"/>
          <g id="Group_518" data-name="Group 518" transform="translate(0.003)">
            <g id="Group_517" data-name="Group 517">
              <rect id="Rectangle_152" data-name="Rectangle 152" width="31.18" height="18.372" transform="translate(155.026)" fill="#e6e6e6"/>
              <rect id="Rectangle_153" data-name="Rectangle 153" width="155.019" height="18.372" transform="translate(155.019 18.38) rotate(180)" fill="#f5f5f5"/>
            </g>
          </g>
          <g id="Group_520" data-name="Group 520" transform="translate(0.003 49.072)">
            <g id="Group_519" data-name="Group 519" transform="translate(0 0)">
              <rect id="Rectangle_154" data-name="Rectangle 154" width="31.18" height="18.372" transform="translate(155.026 0)" fill="#e6e6e6"/>
              <rect id="Rectangle_155" data-name="Rectangle 155" width="155.019" height="18.372" transform="translate(155.019 18.372) rotate(180)" fill="#f5f5f5"/>
            </g>
          </g>
          <rect id="Rectangle_156" data-name="Rectangle 156" width="5.758" height="94.419" transform="translate(180.716 112.806) rotate(180)" fill="#e6e6e6"/>
          <rect id="Rectangle_157" data-name="Rectangle 157" width="5.758" height="94.419" transform="translate(155.025 112.806) rotate(180)" fill="#f5f5f5"/>
          <rect id="Rectangle_158" data-name="Rectangle 158" width="5.758" height="94.419" transform="translate(5.758 112.806) rotate(180)" fill="#f5f5f5"/>
        </g>
      </g>
    </g>
  </g>
  <g id="Shadow_1_" transform="translate(64.108 399.853)">
    <ellipse id="_x3C_Path_x3E__137_" cx="221.526" cy="12.933" rx="221.526" ry="12.933" fill="#f5f5f5"/>
  </g>
  <g id="Login" transform="translate(129.551 75.99)">
    <g id="Group_526" data-name="Group 526">
      <g id="Group_524" data-name="Group 524" transform="translate(0 8.249)">
        <path id="Path_992" data-name="Path 992" d="M281.366,399.255H135.612a9.291,9.291,0,0,1-9.175-8.718L113.4,137.4a8.2,8.2,0,0,1,8.272-8.718H267.427A9.3,9.3,0,0,1,276.6,137.4l13.048,253.129A8.216,8.216,0,0,1,281.366,399.255Z" transform="translate(-113.389 -128.68)" fill="#267b4b"/>
        <path id="Path_993" data-name="Path 993" d="M281.366,399.255H135.612a9.291,9.291,0,0,1-9.175-8.718L113.4,137.4a8.2,8.2,0,0,1,8.272-8.718H267.427A9.3,9.3,0,0,1,276.6,137.4l13.048,253.129A8.216,8.216,0,0,1,281.366,399.255Z" transform="translate(-113.389 -128.68)" fill="#fff" opacity="0.8"/>
      </g>
      <rect id="Rectangle_159" data-name="Rectangle 159" width="16.121" height="1.143" transform="translate(123.532)" fill="#759e87"/>
      <rect id="Rectangle_160" data-name="Rectangle 160" width="5.907" height="1.143" transform="translate(112.038)" fill="#759e87"/>
      <path id="Path_994" data-name="Path 994" d="M285.943,383.723h-139.4a8.89,8.89,0,0,1-8.775-8.34L125.291,133.291a7.84,7.84,0,0,1,7.906-8.341H272.6a8.89,8.89,0,0,1,8.775,8.341L293.85,375.382A7.834,7.834,0,0,1,285.943,383.723Z" transform="translate(-111.695 -120.963)" fill="#267b4b"/>
      <path id="Path_995" data-name="Path 995" d="M285.248,377.465h-139.4a3.349,3.349,0,0,1-3.211-3.051l-12.476-242.1a2.349,2.349,0,0,1,.617-1.782,2.322,2.322,0,0,1,1.725-.708H271.9a3.35,3.35,0,0,1,3.211,3.062L287.59,374.974a2.349,2.349,0,0,1-.617,1.782A2.3,2.3,0,0,1,285.248,377.465ZM132.514,130.117a1.992,1.992,0,0,0-1.52.617,2.014,2.014,0,0,0-.537,1.565l12.476,242.092a3.045,3.045,0,0,0,2.925,2.788H285.248a1.992,1.992,0,0,0,1.52-.617A2.014,2.014,0,0,0,287.3,375L274.828,132.9a3.045,3.045,0,0,0-2.925-2.788Z" transform="translate(-111 -120.268)" fill="#fff"/>
      <ellipse id="Ellipse_18" data-name="Ellipse 18" cx="41.131" cy="43.302" rx="41.131" ry="43.302" transform="matrix(0.698, -0.716, 0.716, 0.698, 34.767, 66.799)" fill="#fff" opacity="0.3"/>
      <path id="Path_996" data-name="Path 996" d="M234.5,184.869a32.634,32.634,0,0,1-3.29,16.258,32.063,32.063,0,0,1-29.1,17.881,36.247,36.247,0,0,1-30.94-17.881,35.162,35.162,0,0,1-4.959-16.258,32.1,32.1,0,0,1,32.379-34.139A36.367,36.367,0,0,1,234.5,184.869Z" transform="translate(-105.868 -117.288)" fill="#fff"/>
      <path id="Path_997" data-name="Path 997" d="M230.59,195.985a32.063,32.063,0,0,1-29.1,17.881,36.247,36.247,0,0,1-30.94-17.881A51.566,51.566,0,0,1,200.1,186.89,56.141,56.141,0,0,1,230.59,195.985Z" transform="translate(-105.242 -112.134)" fill="#115240"/>
      <ellipse id="Ellipse_19" data-name="Ellipse 19" cx="14.819" cy="15.607" rx="14.819" ry="15.607" transform="matrix(0.698, -0.716, 0.716, 0.698, 72.364, 55.61)" fill="#115240"/>
      <g id="Group_525" data-name="Group 525" transform="translate(40.579 126.227)">
        <path id="Path_998" data-name="Path 998" d="M262.593,271.9H153.447a3.756,3.756,0,0,1-3.713-3.53l-.823-16.041a3.313,3.313,0,0,1,3.348-3.53H261.4a3.756,3.756,0,0,1,3.713,3.53l.823,16.041A3.313,3.313,0,0,1,262.593,271.9Z" transform="translate(-148.906 -229.537)" fill="#fff"/>
        <path id="Path_999" data-name="Path 999" d="M225.332,242.406H179.745a3.756,3.756,0,0,1-3.713-3.53l-.171-3.4a3.313,3.313,0,0,1,3.348-3.53H224.8a3.756,3.756,0,0,1,3.713,3.53l.171,3.4A3.333,3.333,0,0,1,225.332,242.406Z" transform="translate(-145.064 -231.94)" opacity="0.3"/>
        <path id="Path_1000" data-name="Path 1000" d="M243.348,338.792H175.071a6.4,6.4,0,0,1-6.318-6.01l-.411-7.872a5.646,5.646,0,0,1,5.7-6.01H242.32a6.4,6.4,0,0,1,6.318,6.01l.411,7.872A5.652,5.652,0,0,1,243.348,338.792Z" transform="translate(-146.137 -219.545)" opacity="0.3"/>
        <path id="Path_1001" data-name="Path 1001" d="M264.343,305.742H155.2a3.756,3.756,0,0,1-3.713-3.53l-.823-16.041a3.313,3.313,0,0,1,3.348-3.53H263.155a3.756,3.756,0,0,1,3.713,3.53l.823,16.041A3.333,3.333,0,0,1,264.343,305.742Z" transform="translate(-148.656 -224.714)" fill="#fff"/>
        <path id="Path_1002" data-name="Path 1002" d="M166.006,259.4a3.668,3.668,0,0,1-3.7,3.908,4.165,4.165,0,0,1-4.113-3.908,3.668,3.668,0,0,1,3.7-3.907A4.165,4.165,0,0,1,166.006,259.4Z" transform="translate(-147.583 -228.583)" fill="#263238"/>
        <path id="Path_1003" data-name="Path 1003" d="M176.516,259.4a3.668,3.668,0,0,1-3.7,3.908A4.165,4.165,0,0,1,168.7,259.4a3.668,3.668,0,0,1,3.7-3.907A4.165,4.165,0,0,1,176.516,259.4Z" transform="translate(-146.085 -228.583)" fill="#263238"/>
        <path id="Path_1004" data-name="Path 1004" d="M187.016,259.4a3.668,3.668,0,0,1-3.7,3.908A4.165,4.165,0,0,1,179.2,259.4a3.668,3.668,0,0,1,3.7-3.907A4.165,4.165,0,0,1,187.016,259.4Z" transform="translate(-144.588 -228.583)" fill="#263238"/>
        <path id="Path_1005" data-name="Path 1005" d="M197.526,259.4a3.668,3.668,0,0,1-3.7,3.908,4.165,4.165,0,0,1-4.113-3.908,3.668,3.668,0,0,1,3.7-3.907A4.165,4.165,0,0,1,197.526,259.4Z" transform="translate(-143.09 -228.583)" fill="#263238"/>
        <path id="Path_1006" data-name="Path 1006" d="M167.746,293.237a3.668,3.668,0,0,1-3.7,3.908,4.165,4.165,0,0,1-4.113-3.908,3.668,3.668,0,0,1,3.7-3.907A4.165,4.165,0,0,1,167.746,293.237Z" transform="translate(-147.335 -223.76)" fill="#263238"/>
        <path id="Path_1007" data-name="Path 1007" d="M178.256,293.237a3.668,3.668,0,0,1-3.7,3.908,4.165,4.165,0,0,1-4.113-3.908,3.668,3.668,0,0,1,3.7-3.907A4.165,4.165,0,0,1,178.256,293.237Z" transform="translate(-145.837 -223.76)" fill="#263238"/>
        <path id="Path_1008" data-name="Path 1008" d="M188.766,293.237a3.668,3.668,0,0,1-3.7,3.908,4.165,4.165,0,0,1-4.113-3.908,3.668,3.668,0,0,1,3.7-3.907A4.165,4.165,0,0,1,188.766,293.237Z" transform="translate(-144.339 -223.76)" fill="#263238"/>
        <path id="Path_1009" data-name="Path 1009" d="M199.266,293.237a3.668,3.668,0,0,1-3.7,3.908,4.165,4.165,0,0,1-4.113-3.908,3.668,3.668,0,0,1,3.7-3.907A4.149,4.149,0,0,1,199.266,293.237Z" transform="translate(-142.842 -223.76)" fill="#263238"/>
        <path id="Path_1010" data-name="Path 1010" d="M209.776,293.237a3.668,3.668,0,0,1-3.7,3.908,4.165,4.165,0,0,1-4.113-3.908,3.668,3.668,0,0,1,3.7-3.907A4.165,4.165,0,0,1,209.776,293.237Z" transform="translate(-141.344 -223.76)" fill="#263238"/>
        <path id="Path_1011" data-name="Path 1011" d="M220.286,293.237a3.668,3.668,0,0,1-3.7,3.908,4.165,4.165,0,0,1-4.113-3.908,3.668,3.668,0,0,1,3.7-3.907A4.165,4.165,0,0,1,220.286,293.237Z" transform="translate(-139.846 -223.76)" fill="#263238"/>
      </g>
    </g>
  </g>
  <g id="Character_1_" transform="translate(268.633 56.768)">
    <g id="Group_533" data-name="Group 533">
      <g id="Group_532" data-name="Group 532">
        <path id="Path_1012" data-name="Path 1012" d="M334.28,176.62c.286.423.434.651.617.96l.514.857c.331.56.617,1.131.914,1.691.571,1.131,1.108,2.262,1.6,3.4A62.5,62.5,0,0,1,340.4,190.5a73.505,73.505,0,0,1,2.708,14.327l.091.9c.011.126.023.331.034.548l.023.617a14.767,14.767,0,0,1-.137,2.376,19.313,19.313,0,0,1-1.131,4.25,28.852,28.852,0,0,1-3.953,6.832A48.494,48.494,0,0,1,327.4,230.422l-3.142-3.69a66.031,66.031,0,0,0,7.586-10.5,24.7,24.7,0,0,0,2.319-5.393,11.09,11.09,0,0,0,.377-2.445,6.433,6.433,0,0,0-.034-1.063l-.034-.24a2.849,2.849,0,0,0-.046-.308l-.149-.8a88.956,88.956,0,0,0-3.108-12.568c-.651-2.045-1.474-4.01-2.3-5.953-.411-.971-.857-1.919-1.314-2.833l-.708-1.337-.354-.64-.286-.5Z" transform="translate(-222.414 -94.375)" fill="#803e3c"/>
        <path id="Path_1013" data-name="Path 1013" d="M323.7,224.331l4.136,8.74,3.279-7.381s-2.9-6.4-6.844-5.815Z" transform="translate(-222.494 -88.215)" fill="#7f3e3b"/>
        <path id="Path_1014" data-name="Path 1014" d="M330.279,232.776l3.29-5.393L330.6,224.95l-3.279,7.392Z" transform="translate(-221.978 -87.487)" fill="#7f3e3b"/>
        <path id="Path_1015" data-name="Path 1015" d="M313.907,408.523a11.628,11.628,0,0,0,2.525-.343A.218.218,0,0,0,316.6,408a.224.224,0,0,0-.1-.229c-.331-.217-3.233-2.091-4.353-1.588a.759.759,0,0,0-.446.64,1.288,1.288,0,0,0,.377,1.2A2.759,2.759,0,0,0,313.907,408.523Zm1.885-.674c-1.668.331-2.913.274-3.4-.171a.842.842,0,0,1-.229-.811.3.3,0,0,1,.194-.286C312.936,406.318,314.616,407.14,315.793,407.849Z" transform="translate(-224.207 -61.667)" fill="#407bff"/>
        <path id="Path_1016" data-name="Path 1016" d="M316.12,408.461a.221.221,0,0,0,.114-.034.235.235,0,0,0,.114-.194c0-.114-.011-2.868-1.051-3.793a1.24,1.24,0,0,0-.96-.308.792.792,0,0,0-.766.628c-.217,1.074,1.52,3.142,2.434,3.656A.164.164,0,0,0,316.12,408.461Zm-1.634-3.873a.771.771,0,0,1,.5.194c.617.548.834,2.091.891,3.016-.914-.731-2-2.274-1.862-2.936.023-.1.08-.24.377-.274Z" transform="translate(-223.94 -61.948)" fill="#407bff"/>
        <path id="Path_1017" data-name="Path 1017" d="M304.922,404.19a.213.213,0,0,0,.046-.217.22.22,0,0,0-.206-.16c-.48-.023-4.582-.194-5.507.811-.023.023-.034.046-.057.069a.777.777,0,0,0-.1.708,1.268,1.268,0,0,0,.834.834c1.325.411,3.668-1.074,4.947-2A.16.16,0,0,1,304.922,404.19Zm-5.324.72c.514-.548,2.765-.7,4.467-.674-1.782,1.211-3.245,1.782-4,1.554a.808.808,0,0,1-.537-.548.256.256,0,0,1,.034-.286A.158.158,0,0,1,299.6,404.91Z" transform="translate(-226.007 -61.996)" fill="#407bff"/>
        <path id="Path_1018" data-name="Path 1018" d="M304.769,404.526a.157.157,0,0,0,.034-.046.207.207,0,0,0,0-.229c-.057-.091-1.325-2.342-2.845-2.753a1.625,1.625,0,0,0-1.3.171c-.548.32-.571.686-.5.937.3,1.063,3.211,1.988,4.456,1.988A.225.225,0,0,0,304.769,404.526Zm-4.1-2.3a1.421,1.421,0,0,1,.217-.171,1.215,1.215,0,0,1,.96-.126,5.233,5.233,0,0,1,2.342,2.171c-1.348-.16-3.416-.994-3.6-1.622C300.576,402.458,300.553,402.355,300.668,402.229Z" transform="translate(-225.854 -62.332)" fill="#407bff"/>
        <path id="Path_1019" data-name="Path 1019" d="M317.554,147.33c-1.108,5.678-3.61,18.063.354,21.857,0,0-1.554,5.758-12.1,5.758-11.608,0-5.541-5.758-5.541-5.758,6.33-1.508,6.17-6.215,5.061-10.626Z" transform="translate(-226.06 -98.55)" fill="#7f3e3b"/>
        <path id="Path_1020" data-name="Path 1020" d="M298.7,136.005a.451.451,0,0,0,.411-.651,4.5,4.5,0,0,0-3.291-2.514.451.451,0,0,0-.5.4.459.459,0,0,0,.4.5h0a3.592,3.592,0,0,1,2.582,2.022A.436.436,0,0,0,298.7,136.005Z" transform="translate(-226.54 -100.616)" fill="#263238"/>
        <path id="Path_1021" data-name="Path 1021" d="M295.666,139.95a20.22,20.22,0,0,1-3.336,4.547,3.278,3.278,0,0,0,2.662.846Z" transform="translate(-226.966 -99.602)" fill="#630f0f"/>
        <path id="Path_1022" data-name="Path 1022" d="M296.217,139.057c-.091.765-.583,1.337-1.074,1.28s-.834-.731-.731-1.5.583-1.337,1.074-1.28S296.309,138.292,296.217,139.057Z" transform="translate(-226.671 -99.943)" fill="#263238"/>
        <path id="Path_1023" data-name="Path 1023" d="M295.761,137.714l-1.771-.754C293.979,136.96,294.744,138.514,295.761,137.714Z" transform="translate(-226.729 -100.028)" fill="#263238"/>
        <path id="Path_1024" data-name="Path 1024" d="M314.89,404.915l-9.323,2.171L299.9,385.652l9.323-2.182Z" transform="translate(-225.887 -64.892)" fill="#7f3e3b"/>
        <path id="Path_1025" data-name="Path 1025" d="M326.734,410.484H317.16l.754-22.154h9.574Z" transform="translate(-223.426 -64.199)" fill="#7f3e3b"/>
        <path id="Path_1026" data-name="Path 1026" d="M318.218,406.75h10.751a.765.765,0,0,1,.766.651l1.223,8.512a1.539,1.539,0,0,1-1.531,1.7c-3.748-.069-5.553-.286-10.283-.286-2.913,0-7.164.3-11.174.3-3.93,0-4.227-3.976-2.559-4.33,7.495-1.611,8.683-3.839,11.208-5.964A2.529,2.529,0,0,1,318.218,406.75Z" transform="translate(-225.238 -61.574)" fill="#263238"/>
        <path id="Path_1027" data-name="Path 1027" d="M305.505,403.459l9.769-4.49a.774.774,0,0,1,.971.274l4.673,7.221a1.527,1.527,0,0,1-.686,2.182c-3.428,1.508-5.164,2.068-9.46,4.045-2.639,1.211-7.986,4.01-11.631,5.678-3.565,1.645-5.507-1.839-4.136-2.868,6.135-4.6,7.895-7.849,9.3-10.843A2.4,2.4,0,0,1,305.505,403.459Z" transform="translate(-226.647 -62.693)" fill="#263238"/>
        <g id="Group_527" data-name="Group 527" transform="translate(74.025 318.589)">
          <path id="Path_1028" data-name="Path 1028" d="M299.91,385.651l3.028,11.494,9.209-2.616-2.913-11.048Z" transform="translate(-299.91 -383.48)" opacity="0.2"/>
          <path id="Path_1029" data-name="Path 1029" d="M327.441,388.33h-9.574l-.377,11.425h9.574Z" transform="translate(-297.404 -382.789)" opacity="0.2"/>
        </g>
        <path id="Path_1030" data-name="Path 1030" d="M331.294,168.378c3.976.868,8.226,15.173,8.226,15.173L328.278,195.5s-9.323-13.436-7.427-18.372C322.828,171.988,326.6,167.35,331.294,168.378Z" transform="translate(-222.936 -95.571)" fill="#263238"/>
        <path id="Path_1031" data-name="Path 1031" d="M324.989,176.476c-2.011-1.839-3.37-1.291-4.3.171-.914,4.25,4.5,13.151,6.684,16.521C328.382,189.146,329.536,180.657,324.989,176.476Z" transform="translate(-222.938 -94.562)" opacity="0.4"/>
        <path id="Path_1032" data-name="Path 1032" d="M286.052,168.957s-4.559,1.611,4.57,57.755h38.869c-.651-15.824-.674-25.57,6.889-58.041a114.57,114.57,0,0,0-16.51-2.171,122.871,122.871,0,0,0-17.652,0C294.644,167.2,286.052,168.957,286.052,168.957Z" transform="translate(-228.023 -95.864)" fill="#263238"/>
        <path id="Path_1033" data-name="Path 1033" d="M285.6,188.281c.251,2.731.583,5.8,1.017,9.277,3.188-2.868,5.781-11.025,4.833-15.778A28.094,28.094,0,0,0,285.6,188.281Z" transform="translate(-227.925 -93.64)" opacity="0.4"/>
        <path id="Path_1034" data-name="Path 1034" d="M295.634,180.476c-2.114,5.336-4.444,10.42-7.061,15.493a95.746,95.746,0,0,1-9.129,14.853l-.731.9-.366.446c-.126.149-.229.286-.423.491a14.212,14.212,0,0,1-2.262,2.011,18.671,18.671,0,0,1-4.776,2.388,34.887,34.887,0,0,1-9.186,1.622,67.816,67.816,0,0,1-17.321-1.542l.628-4.81c2.628.011,5.381-.046,8.032-.217a62.47,62.47,0,0,0,7.849-.88,30.547,30.547,0,0,0,7.015-1.954,10.492,10.492,0,0,0,2.525-1.542,4.67,4.67,0,0,0,.777-.823,2.383,2.383,0,0,0,.229-.308l.263-.377.537-.754a114.823,114.823,0,0,0,7.644-13.836c2.319-4.856,4.559-9.894,6.65-14.819Z" transform="translate(-233.8 -94.347)" fill="#803e3c"/>
        <path id="Path_1035" data-name="Path 1035" d="M287.234,168.651c-4.753,1.154-10.614,14.213-10.614,14.213l9.872,14.51s13.139-16.544,11.585-21.605C296.443,170.5,293,167.235,287.234,168.651Z" transform="translate(-229.205 -95.558)" fill="#263238"/>
        <path id="Path_1036" data-name="Path 1036" d="M248.46,208.985l-8.238-3.8-.823,8.192s6.878,2.022,10.271-.046Z" transform="translate(-234.51 -90.305)" fill="#7f3e3b"/>
        <path id="Path_1037" data-name="Path 1037" d="M235.908,204.46l-.788,6.238,4.89,2.776.823-8.192Z" transform="translate(-235.12 -90.407)" fill="#7f3e3b"/>
        <path id="Path_1038" data-name="Path 1038" d="M322.315,141.292c-1.737,9.335-2.285,13.322-7.632,17.572-8.043,6.375-19.137,2.194-20.211-7.472-.971-8.706,2.034-22.508,11.711-25.113A12.95,12.95,0,0,1,322.315,141.292Z" transform="translate(-226.685 -101.619)" fill="#7f3e3b"/>
        <path id="Path_1039" data-name="Path 1039" d="M301.511,143.951c-.537,4.764-.743,17.127,9.723,17.515,12.819.48,16.658-10.477,15.516-14.853,6.661-5.427,7.632-14.762.137-21.9s-23.993-3.153-28.6,3.8C292.565,137.152,301.511,143.951,301.511,143.951Z" transform="translate(-226.389 -102.312)" fill="#263238"/>
        <path id="Path_1040" data-name="Path 1040" d="M312.127,127.739c-.617-5.016-.137-8.489,4.559-8.489s11.128,1.7,13.482,6.524,2.548,12.328-4.022,11.574S312.869,133.749,312.127,127.739Z" transform="translate(-224.174 -102.553)" fill="#267b4b"/>
        <path id="Path_1041" data-name="Path 1041" d="M318.5,128.611c-1.12-5.987,4.216-22.851,17.241-23.948,6.033-.5,8.82,5.987,5.667,7.049,5.7-.069,9.369,7.484,4.045,8.615,4.216,2.7,3.165,8.226-2.833,10.945C338.184,133.284,320.04,136.906,318.5,128.611Z" transform="translate(-223.256 -104.636)" fill="#263238"/>
        <path id="Path_1042" data-name="Path 1042" d="M332.393,132.794c-4.193,0-8.569-.617-11.288-2.434a5.627,5.627,0,0,1-2.685-4.353.284.284,0,0,1,.263-.308.278.278,0,0,1,.308.263,5.071,5.071,0,0,0,2.434,3.919c5.164,3.462,17.115,2.342,20.863,1.12,3.222-1.051,5.4-3.085,5.838-5.45a4.736,4.736,0,0,0-1.908-4.627.285.285,0,0,1,.354-.446,5.325,5.325,0,0,1,2.114,5.176c-.468,2.571-2.8,4.776-6.215,5.884A36.805,36.805,0,0,1,332.393,132.794Z" transform="translate(-223.247 -102.386)" fill="#263238"/>
        <path id="Path_1043" data-name="Path 1043" d="M298.482,140.164a7.134,7.134,0,0,0-1.223,5.153c.377,2.4,2.719,2.559,4.41,1.017,1.52-1.382,3.153-4.3,1.908-6.284C302.344,138.1,299.785,138.347,298.482,140.164Z" transform="translate(-226.274 -99.782)" fill="#7f3e3b"/>
        <path id="Path_1044" data-name="Path 1044" d="M298.89,219.161s5.553,65.684,11.311,102.7c4.65,29.9,8.329,99.789,8.329,99.789h13.048s4.639-67.8,2.274-97.378c-5.975-74.836,7.358-80.926-6.364-105.125h-28.6Z" transform="translate(-226.031 -88.313)" fill="#195d37"/>
        <path id="Path_1045" data-name="Path 1045" d="M314.808,240.89a63.75,63.75,0,0,0-12.328,18.6c1.52,14.762,3.325,31.146,5.244,45.5A126.108,126.108,0,0,0,314.808,240.89Z" transform="translate(-225.519 -85.215)" opacity="0.4"/>
        <path id="Path_1046" data-name="Path 1046" d="M292.64,218.8s-12.054,71.74-13.95,104.074c4.73,29.9,24.085,93.105,24.085,93.105l11.871-4.3s-6.57-68.918-13.745-87.781c16.075-54.122,27.889-67.8,24.45-104.679C317.148,219.211,292.64,218.8,292.64,218.8Z" transform="translate(-228.91 -88.363)" fill="#195d37"/>
        <path id="Path_1047" data-name="Path 1047" d="M298.635,395.481l16.041-4.353-.914-6.4-17.172,4.65Z" transform="translate(-226.358 -64.712)" fill="#263238"/>
        <path id="Path_1048" data-name="Path 1048" d="M314.531,397.421h16.624l.868-5.827L314.44,391Z" transform="translate(-223.814 -63.819)" fill="#263238"/>
        <g id="Group_528" data-name="Group 528" transform="translate(61.387 128.277)">
          <path id="Path_1049" data-name="Path 1049" d="M329.513,217.2l1.748,3.485c.137.274-.183.548-.628.548H289.867c-.354,0-.64-.171-.663-.388l-.354-3.485c-.023-.24.274-.446.663-.446h39.36A.716.716,0,0,1,329.513,217.2Z" transform="translate(-288.849 -216.91)" fill="#267b4b"/>
          <path id="Path_1050" data-name="Path 1050" d="M329.513,217.2l1.748,3.485c.137.274-.183.548-.628.548H289.867c-.354,0-.64-.171-.663-.388l-.354-3.485c-.023-.24.274-.446.663-.446h39.36A.716.716,0,0,1,329.513,217.2Z" transform="translate(-288.849 -215.767)" opacity="0.5"/>
        </g>
        <path id="Path_1051" data-name="Path 1051" d="M319.923,221.644h1.051c.206,0,.366-.1.354-.24l-.491-4.524c-.011-.137-.194-.24-.411-.24h-1.051c-.206,0-.366.1-.354.24l.491,4.524C319.534,221.53,319.717,221.644,319.923,221.644Z" transform="translate(-223.161 -88.671)" fill="#407bff"/>
        <g id="Group_531" data-name="Group 531" transform="translate(65.133 70.731)">
          <path id="Path_1052" data-name="Path 1052" d="M309.611,195.491a.563.563,0,0,1-.548-.423c-3.725-13.768-11.471-25.1-15.173-26.85a1.275,1.275,0,0,0-.96-.16.57.57,0,1,1-.468-1.04,2.246,2.246,0,0,1,1.919.171c3.942,1.862,11.757,13.059,15.664,27.158,2.8-.034,7.118-.388,8.169-.468,1.3-1.554,10.888-13.528,7.3-26.621a.568.568,0,0,1,1.1-.3c3.987,14.579-7.575,27.729-7.7,27.855a.566.566,0,0,1-.377.183C318.489,194.989,312.787,195.491,309.611,195.491Z" transform="translate(-292.127 -166.543)" fill="#115240"/>
          <g id="Group_530" data-name="Group 530" transform="translate(12.174 11.457)">
            <g id="Group_529" data-name="Group 529">
              <path id="Path_1053" data-name="Path 1053" d="M327.013,202.128c-6.227-11.677-8.775-12.488-9.883-16.247a19.327,19.327,0,0,1,3.553-5.7c-.766-.217-2.376-.537-3.393-.731.114-.514.229-1.017.354-1.5a10.9,10.9,0,0,0-3.485.16l-.034-1.154s-3.153-.628-4.433-.286c.126.526.251,1.085.377,1.645-1.108.217-2.891.571-3.725.8a16.284,16.284,0,0,1,3.485,6.364c-3.359,5.758-16.407,42.857,4.822,45.644S333.24,213.805,327.013,202.128Z" transform="translate(-302.783 -176.57)" fill="#195d37"/>
              <path id="Path_1054" data-name="Path 1054" d="M327.013,202.128c-6.227-11.677-8.775-12.488-9.883-16.247a19.327,19.327,0,0,1,3.553-5.7c-.766-.217-2.376-.537-3.393-.731.114-.514.229-1.017.354-1.5a10.9,10.9,0,0,0-3.485.16l-.034-1.154s-3.153-.628-4.433-.286c.126.526.251,1.085.377,1.645-1.108.217-2.891.571-3.725.8a16.284,16.284,0,0,1,3.485,6.364c-3.359,5.758-16.407,42.857,4.822,45.644S333.24,213.805,327.013,202.128Z" transform="translate(-302.783 -176.57)" fill="#fff" opacity="0.4"/>
            </g>
            <path id="Path_1055" data-name="Path 1055" d="M308.281,183.444a7.151,7.151,0,0,0-.171,1.782c-.023.434,1.12.72,2.4.834s6.592.331,6.432-.263.263-1.405.286-1.908-2.114-.526-3.907-.457S308.636,182.8,308.281,183.444Z" transform="translate(-302.023 -175.63)" fill="#195d37"/>
          </g>
        </g>
        <path id="Path_1056" data-name="Path 1056" d="M297.563,221.644h1.051c.206,0,.366-.1.354-.24l-.491-4.524c-.011-.137-.194-.24-.411-.24h-1.051c-.206,0-.366.1-.354.24l.491,4.524C297.163,221.53,297.346,221.644,297.563,221.644Z" transform="translate(-226.348 -88.671)" fill="#267b4b"/>
      </g>
    </g>
  </g>
</svg>
