<svg xmlns="http://www.w3.org/2000/svg" width="58.645" height="68.375" viewBox="0 0 58.645 68.375">
  <g id="Group_118" data-name="Group 118" transform="translate(0)">
    <g id="Group_74" data-name="Group 74" transform="translate(11.787 13.281)">
      <path id="Path_136" data-name="Path 136" d="M652.791,234.274a24.349,24.349,0,0,1,6.976-.548,6.842,6.842,0,0,1,3.193.315,27.968,27.968,0,0,1,3.467,1.192,12.233,12.233,0,0,1,1.1.6,15.934,15.934,0,0,1,5.866,5.345,17.821,17.821,0,0,1,1.261,2.3,18.787,18.787,0,0,1,1.165,3.837,14.564,14.564,0,0,1,.233,2.316,20.389,20.389,0,0,1-.178,4.084,18.882,18.882,0,0,1-.918,3.454,27.058,27.058,0,0,1-1.494,3.495c-.1.178-.192.356-.274.548-.548.973-1.1,1.96-1.686,2.919-.507.918-1.083,1.782-1.549,2.714a25.022,25.022,0,0,0-2.028,4.125,11.939,11.939,0,0,0-.9,3.769c-.041.493.082,1.083-.617,1.261a24.965,24.965,0,0,1-3.358.027c-1.042-.164-.74-.973-.768-1.617a22.39,22.39,0,0,1,1.919-6.88c.507-1.1,1.165-2.124,1.686-3.207a3.794,3.794,0,0,0,.548-.9c.507-.918,1.1-1.782,1.6-2.7a24.715,24.715,0,0,0,2.988-7.031,12.645,12.645,0,0,0,.274-3.207,11.448,11.448,0,0,0-.439-3.276,10.7,10.7,0,0,0-.959-2.563,7.064,7.064,0,0,0-.7-1.1,10.451,10.451,0,0,0-2.851-2.851,9.1,9.1,0,0,0-1.083-.7,8.627,8.627,0,0,0-2.371-1,11.981,11.981,0,0,0-3.673-.726,26.91,26.91,0,0,0-2.782,0,12.18,12.18,0,0,0-3.495.767,10.781,10.781,0,0,0-2.577,1.138,11.133,11.133,0,0,0-1.069.713,10.276,10.276,0,0,0-2.535,2.631,7.408,7.408,0,0,0-.809,1.3,14.32,14.32,0,0,0-.877,2.357,11.1,11.1,0,0,0-.4,3.289,11.7,11.7,0,0,0,.274,3.234,13.023,13.023,0,0,0,1.11,3.426c.041.069.068.151.11.219a20.33,20.33,0,0,0,1.782,3.426c.37.85.973,1.549,1.371,2.371.164.315.37.6.548.918a31.536,31.536,0,0,1,1.878,3.563,27.877,27.877,0,0,1,1.192,3.07,1.448,1.448,0,0,1,.068.26,29.331,29.331,0,0,1,.672,3.44c.082,1.329,0,1.466-.9,1.645a21.145,21.145,0,0,1-3.358-.068c-.48-.206-.439-.644-.466-1.055a14.4,14.4,0,0,0-.9-3.933,32.2,32.2,0,0,0-2.206-4.468c-.452-.809-.946-1.59-1.425-2.385-.644-1.233-1.412-2.4-2.015-3.646a33.988,33.988,0,0,1-1.549-3.632,22.6,22.6,0,0,1-.726-2.988c-.192-1.055-.178-2.138-.288-3.193a1.854,1.854,0,0,1,.027-.274,3.56,3.56,0,0,0,.068-1.206,12.87,12.87,0,0,1,.233-1.919A23.174,23.174,0,0,1,641.2,243.7a21.771,21.771,0,0,1,1.22-2.3,19.732,19.732,0,0,1,2.056-2.6,16.281,16.281,0,0,1,1.343-1.233,2.132,2.132,0,0,1,.274-.219,4.326,4.326,0,0,1,.713-.356c.863-.493,1.741-.987,2.6-1.48C650.53,235.1,651.668,234.685,652.791,234.274Z" transform="translate(-639.84 -233.63)" fill="#2c2c2c"/>
    </g>
    <g id="Group_75" data-name="Group 75" transform="translate(21.01 53.259)">
      <path id="Path_137" data-name="Path 137" d="M662.482,266.8H648.571a2.012,2.012,0,0,1-2-2h0a2.012,2.012,0,0,1,2-2h13.911a2.012,2.012,0,0,1,2,2h0A2.012,2.012,0,0,1,662.482,266.8Z" transform="translate(-646.57 -262.8)" fill="#2c2c2c"/>
    </g>
    <g id="Group_76" data-name="Group 76" transform="translate(22.011 58.055)">
      <path id="Path_138" data-name="Path 138" d="M661.416,269.343h-12.6a1.527,1.527,0,0,1-1.521-1.521h0a1.527,1.527,0,0,1,1.521-1.521h12.6a1.527,1.527,0,0,1,1.521,1.521h0A1.527,1.527,0,0,1,661.416,269.343Z" transform="translate(-647.3 -266.3)" fill="#2c2c2c"/>
    </g>
    <g id="Group_77" data-name="Group 77" transform="translate(23.134 61.907)">
      <path id="Path_139" data-name="Path 139" d="M660.153,271.878H649.5a1.389,1.389,0,0,1-1.384-1.384h0a1.389,1.389,0,0,1,1.384-1.384h10.649a1.389,1.389,0,0,1,1.384,1.384h0A1.389,1.389,0,0,1,660.153,271.878Z" transform="translate(-648.12 -269.11)" fill="#2c2c2c"/>
    </g>
    <g id="Group_78" data-name="Group 78" transform="translate(24.45 65.607)">
      <path id="Path_140" data-name="Path 140" d="M658.468,274.578h-8a1.389,1.389,0,0,1-1.384-1.384h0a1.389,1.389,0,0,1,1.384-1.384h8a1.389,1.389,0,0,1,1.384,1.384h0A1.372,1.372,0,0,1,658.468,274.578Z" transform="translate(-649.08 -271.81)" fill="#2c2c2c"/>
    </g>
    <g id="Group_79" data-name="Group 79" transform="translate(24.738 42.672)">
      <path id="Path_141" data-name="Path 141" d="M660.09,257.466c-5.962-2.645-10.115-.069-10.156-.041l-.644-1c.192-.123,4.742-2.947,11.279-.041Z" transform="translate(-649.29 -255.075)" fill="#2c2c2c"/>
    </g>
    <g id="Group_80" data-name="Group 80" transform="translate(25.464 38.786)">
      <path id="Path_142" data-name="Path 142" d="M653.37,267.467l-1.192-.055c0-.1.466-10.265-2.357-14.514l1-.658C653.863,256.818,653.4,267.042,653.37,267.467Z" transform="translate(-649.82 -252.24)" fill="#2c2c2c"/>
    </g>
    <g id="Group_81" data-name="Group 81" transform="translate(30.919 38.772)">
      <path id="Path_143" data-name="Path 143" d="M653.841,267.47c-.027-.439-.493-10.649,2.549-15.24l1,.658c-2.823,4.262-2.357,14.418-2.357,14.514Z" transform="translate(-653.8 -252.23)" fill="#2c2c2c"/>
    </g>
    <g id="Group_93" data-name="Group 93">
      <g id="Group_82" data-name="Group 82" transform="translate(28.041)">
        <path id="Path_144" data-name="Path 144" d="M653.331,232.643h0a1.635,1.635,0,0,1-1.631-1.631v-5.441a1.635,1.635,0,0,1,1.631-1.631h0a1.635,1.635,0,0,1,1.631,1.631v5.441A1.644,1.644,0,0,1,653.331,232.643Z" transform="translate(-651.7 -223.94)" fill="#2c2c2c"/>
      </g>
      <g id="Group_83" data-name="Group 83" transform="translate(17.42 1.96)">
        <path id="Path_145" data-name="Path 145" d="M648.294,233.538h0a1.644,1.644,0,0,1-2.138-.877l-2.083-5.03a1.639,1.639,0,0,1,.891-2.138h0a1.644,1.644,0,0,1,2.138.877l2.083,5.03A1.663,1.663,0,0,1,648.294,233.538Z" transform="translate(-643.95 -225.37)" fill="#2c2c2c"/>
      </g>
      <g id="Group_84" data-name="Group 84" transform="translate(8.353 7.86)">
        <path id="Path_146" data-name="Path 146" d="M643.975,236.3h0a1.655,1.655,0,0,1-2.316,0l-3.851-3.851a1.638,1.638,0,0,1,0-2.3h0a1.655,1.655,0,0,1,2.316,0L643.975,234A1.613,1.613,0,0,1,643.975,236.3Z" transform="translate(-637.335 -229.675)" fill="#2c2c2c"/>
      </g>
      <g id="Group_85" data-name="Group 85" transform="translate(2.234 16.74)">
        <path id="Path_147" data-name="Path 147" d="M641.052,240.507h0a1.621,1.621,0,0,1-2.138.877l-5.03-2.083a1.639,1.639,0,0,1-.891-2.138h0a1.621,1.621,0,0,1,2.138-.877l5.03,2.083A1.639,1.639,0,0,1,641.052,240.507Z" transform="translate(-632.87 -236.155)" fill="#2c2c2c"/>
      </g>
      <g id="Group_86" data-name="Group 86" transform="translate(0 27.301)">
        <path id="Path_148" data-name="Path 148" d="M639.956,245.491h0a1.635,1.635,0,0,1-1.631,1.631h-5.455a1.635,1.635,0,0,1-1.631-1.631h0a1.635,1.635,0,0,1,1.631-1.631h5.455A1.635,1.635,0,0,1,639.956,245.491Z" transform="translate(-631.24 -243.86)" fill="#2c2c2c"/>
      </g>
      <g id="Group_87" data-name="Group 87" transform="translate(1.974 35.839)">
        <path id="Path_149" data-name="Path 149" d="M640.862,251.09h0a1.639,1.639,0,0,1-.891,2.138l-5.03,2.083a1.644,1.644,0,0,1-2.138-.877h0a1.639,1.639,0,0,1,.891-2.138l5.03-2.083A1.644,1.644,0,0,1,640.862,251.09Z" transform="translate(-632.68 -250.09)" fill="#2c2c2c"/>
      </g>
      <g id="Group_88" data-name="Group 88" transform="translate(48.106 36.476)">
        <path id="Path_150" data-name="Path 150" d="M666.463,251.563h0a1.622,1.622,0,0,1,2.138-.877l5.03,2.083a1.639,1.639,0,0,1,.891,2.138h0a1.622,1.622,0,0,1-2.138.877l-5.03-2.083A1.649,1.649,0,0,1,666.463,251.563Z" transform="translate(-666.34 -250.555)" fill="#2c2c2c"/>
      </g>
      <g id="Group_89" data-name="Group 89" transform="translate(49.928 28)">
        <path id="Path_151" data-name="Path 151" d="M667.67,246h0a1.635,1.635,0,0,1,1.631-1.631h5.455A1.635,1.635,0,0,1,676.386,246h0a1.635,1.635,0,0,1-1.631,1.631H669.3A1.635,1.635,0,0,1,667.67,246Z" transform="translate(-667.67 -244.37)" fill="#2c2c2c"/>
      </g>
      <g id="Group_90" data-name="Group 90" transform="translate(48.366 17.378)">
        <path id="Path_152" data-name="Path 152" d="M666.653,240.965h0a1.639,1.639,0,0,1,.891-2.138l5.03-2.083a1.644,1.644,0,0,1,2.138.877h0a1.639,1.639,0,0,1-.891,2.138l-5.03,2.083A1.621,1.621,0,0,1,666.653,240.965Z" transform="translate(-666.53 -236.62)" fill="#2c2c2c"/>
      </g>
      <g id="Group_91" data-name="Group 91" transform="translate(43.658 8.34)">
        <path id="Path_153" data-name="Path 153" d="M663.568,236.665h0a1.655,1.655,0,0,1,0-2.316l3.851-3.851a1.655,1.655,0,0,1,2.316,0h0a1.638,1.638,0,0,1,0,2.3l-3.851,3.851A1.642,1.642,0,0,1,663.568,236.665Z" transform="translate(-663.095 -230.025)" fill="#2c2c2c"/>
      </g>
      <g id="Group_92" data-name="Group 92" transform="translate(36.511 2.226)">
        <path id="Path_154" data-name="Path 154" d="M658.894,233.74h0A1.639,1.639,0,0,1,658,231.6l2.083-5.03a1.621,1.621,0,0,1,2.138-.877h0a1.639,1.639,0,0,1,.891,2.138l-2.083,5.03A1.644,1.644,0,0,1,658.894,233.74Z" transform="translate(-657.88 -225.565)" fill="#2c2c2c"/>
      </g>
    </g>
  </g>
</svg>
