<svg xmlns="http://www.w3.org/2000/svg" width="64.249" height="64.249" viewBox="0 0 64.249 64.249">
  <path id="Icon_awesome-hire-a-helper" data-name="Icon awesome-hire-a-helper" d="M55.6,0H9.022A10.242,10.242,0,0,1,0,9V55.615a10.348,10.348,0,0,1,9.022,8.633H55.728a9.735,9.735,0,0,1,8.52-8.759V9A10.329,10.329,0,0,1,55.6,0ZM50.96,50.809c-4.555,0-2.359-.251-6.914-.251-4.492,0-2.635.251-7.04.251-.74,0-.615-1.029,0-1.23,2.861-.954,2.874-1.28,3.087-1.606,1.305-1.958.74-10.415.74-14.18A1.865,1.865,0,0,0,39.1,32.187H25.147a1.865,1.865,0,0,0-1.732,1.606c0,3.765-.565,12.222.74,14.18.213.314.226.653,3.087,1.606.615.2.753,1.23,0,1.23-4.4,0-2.547-.251-7.04-.251-4.555,0-2.359.251-6.914.251-.991,0-.728-1.355,0-1.355a4.161,4.161,0,0,0,2.723-1.732C16.978,46.1,17,42.151,17,31.685v-12.7c0-2.786-1.531-3.551-3.589-4.066-1.1-.276-.5-1.481.125-1.481,4.58,0,2.585.251,7.165.251,4.1,0,2.071-.251,6.174-.251.414,0,1.067,1.042.125,1.355-.615.2-3.463.464-3.463,4.932,0,5.722-.025,7,.125,8.633,0,.163.289,1.606,1.606,1.606h13.7c1.318,0,1.606-1.443,1.606-1.606.151-1.631.125-2.911.125-8.633,0-4.467-2.849-4.731-3.463-4.932-.941-.314-.289-1.355.125-1.355,4.1,0,2.071.251,6.174.251,4.58,0,2.585-.251,7.165-.251.615,0,1.242,1.2.125,1.481-2.058.514-3.589,1.293-3.589,4.066v12.7c0,10.465.013,14.418.991,16.037a4.18,4.18,0,0,0,2.723,1.732c.728,0,.979,1.355,0,1.355Z" fill="#2c2c2c"/>
</svg>
