<svg xmlns="http://www.w3.org/2000/svg" width="57.411" height="60.797" viewBox="0 0 57.411 60.797">
  <g id="Group_105" data-name="Group 105" transform="translate(0.447 -8.475)">
    <g id="Group_119" data-name="Group 119" transform="translate(-0.447 8.475)">
      <g id="Group_106" data-name="Group 106" transform="translate(10.978 10.951)">
        <path id="Path_169" data-name="Path 169" d="M659.148,495.078A19.434,19.434,0,1,1,678.6,475.644,19.466,19.466,0,0,1,659.148,495.078Zm0-34.126a14.706,14.706,0,1,0,14.719,14.706A14.728,14.728,0,0,0,659.148,460.952Z" transform="translate(-639.7 -456.21)" fill="#2c2c2c"/>
      </g>
      <g id="Group_107" data-name="Group 107">
        <path id="Path_170" data-name="Path 170" d="M662.116,509.016a30.4,30.4,0,1,1,21.517-51.888,2.365,2.365,0,0,1-3.344,3.344,25.67,25.67,0,1,0,0,36.292,2.365,2.365,0,1,1,3.344,3.344A30.24,30.24,0,0,1,662.116,509.016Z" transform="translate(-631.69 -448.22)" fill="#2c2c2c"/>
      </g>
      <g id="Group_108" data-name="Group 108" transform="translate(43.363 6.332)">
        <path id="Path_171" data-name="Path 171" d="M675.24,466.422l1.466-13.582-13.376,6.853Z" transform="translate(-663.33 -452.84)" fill="#2c2c2c"/>
      </g>
      <g id="Group_109" data-name="Group 109" transform="translate(44.364 41.253)">
        <path id="Path_172" data-name="Path 172" d="M677.107,478.32,664.06,482.4l11.636,9.5Z" transform="translate(-664.06 -478.32)" fill="#2c2c2c"/>
      </g>
      <g id="Group_110" data-name="Group 110" transform="translate(27.191 19.941)">
        <path id="Path_173" data-name="Path 173" d="M660.644,480.463a1.286,1.286,0,0,1-.754-.233l-8.36-5.674V464.1a1.329,1.329,0,1,1,2.659,0v9.045l7.2,4.879a1.34,1.34,0,0,1,.356,1.85A1.319,1.319,0,0,1,660.644,480.463Z" transform="translate(-651.53 -462.77)" fill="#2c2c2c"/>
      </g>
    </g>
  </g>
</svg>
