<svg id="surface1" xmlns="http://www.w3.org/2000/svg" width="28.833" height="33.86" viewBox="0 0 28.833 33.86">
  <path id="Path_663" data-name="Path 663" d="M126.893,158.457a6.451,6.451,0,1,0,6.451,6.451A6.459,6.459,0,0,0,126.893,158.457Zm3.83,5.236-4.622,4.622a.993.993,0,0,1-1.405,0l-1.766-1.766a.993.993,0,0,1,1.4-1.4l1.064,1.064,3.92-3.919a.993.993,0,0,1,1.4,1.4Zm0,0" transform="translate(-112.476 -147.978)"/>
  <path id="Path_664" data-name="Path 664" d="M28.8,9.186V9.16c-.015-.325-.025-.669-.03-1.052A3.589,3.589,0,0,0,25.39,4.592,13.925,13.925,0,0,1,15.912.6L15.89.576a2.167,2.167,0,0,0-2.945,0L12.923.6a13.927,13.927,0,0,1-9.478,4A3.588,3.588,0,0,0,.066,8.108C.06,8.488.05,8.832.036,9.16l0,.061c-.076,3.97-.17,8.91,1.483,13.395a17.051,17.051,0,0,0,4.091,6.372,21.4,21.4,0,0,0,8.005,4.735,2.479,2.479,0,0,0,.328.089,2.423,2.423,0,0,0,.953,0,2.487,2.487,0,0,0,.329-.09,21.413,21.413,0,0,0,8-4.738,17.075,17.075,0,0,0,4.091-6.373C28.969,18.113,28.875,13.163,28.8,9.186ZM14.417,25.368a8.438,8.438,0,1,1,8.438-8.438A8.448,8.448,0,0,1,14.417,25.368Zm0,0" transform="translate(0 0.001)"/>
</svg>
