<svg id="business" xmlns="http://www.w3.org/2000/svg" width="36.439" height="36.439" viewBox="0 0 36.439 36.439">
  <g id="Group_343" data-name="Group 343" transform="translate(18.219 18.726)">
    <g id="Group_342" data-name="Group 342">
      <path id="Path_665" data-name="Path 665" d="M256,263.123v1.824c.462-.109.829-.367.829-.858C256.829,263.64,256.489,263.354,256,263.123Z" transform="translate(-256 -263.123)"/>
    </g>
  </g>
  <g id="Group_345" data-name="Group 345" transform="translate(16.588 14.589)">
    <g id="Group_344" data-name="Group 344">
      <path id="Path_666" data-name="Path 666" d="M233.078,205.748c0,.395.353.64.87.857v-1.62C233.336,205.108,233.078,205.421,233.078,205.748Z" transform="translate(-233.078 -204.986)"/>
    </g>
  </g>
  <g id="Group_347" data-name="Group 347">
    <g id="Group_346" data-name="Group 346">
      <path id="Path_667" data-name="Path 667" d="M18.219,0A18.219,18.219,0,1,0,36.439,18.219,18.209,18.209,0,0,0,18.219,0Zm0,31.386A13.166,13.166,0,1,1,31.386,18.219,13.181,13.181,0,0,1,18.219,31.386Z"/>
    </g>
  </g>
  <g id="Group_349" data-name="Group 349" transform="translate(7.188 7.188)">
    <g id="Group_348" data-name="Group 348">
      <path id="Path_668" data-name="Path 668" d="M112.031,101a11.031,11.031,0,1,0,11.031,11.031A11.044,11.044,0,0,0,112.031,101Zm.136,15.254v.395c0,.191-.258.367-.517.367-.3,0-.517-.177-.517-.367v-.34c-1.631-.054-2.964-.9-2.964-1.769,0-.463.408-1.143.924-1.143.571,0,1.033.8,2.039.98v-2.2c-1.251-.476-2.719-1.062-2.719-2.8a2.782,2.782,0,0,1,2.719-2.763v-.381c0-.191.217-.367.517-.367.258,0,.517.177.517.367v.34c.843.027,2.433.245,2.433,1.184,0,.367-.245,1.116-.843,1.116-.449,0-.707-.435-1.591-.5v1.987c1.237.463,2.678,1.1,2.678,2.94A2.891,2.891,0,0,1,112.167,116.254Z" transform="translate(-101 -101)"/>
    </g>
  </g>
</svg>
