<svg xmlns="http://www.w3.org/2000/svg" width="31.108" height="30.45" viewBox="0 0 31.108 30.45">
  <path id="Icon_metro-tools" data-name="Icon metro-tools" d="M35.718,10.578A7.745,7.745,0,0,1,24.74,20.294L22.6,22.634l1.529,1.535.914-.914a1.194,1.194,0,0,1,1.691,0l7.408,7.484a1.194,1.194,0,0,1,0,1.691l-3.381,3.381a1.194,1.194,0,0,1-1.691,0l-7.408-7.484a1.194,1.194,0,0,1,0-1.691l.834-.834-1.457-1.46L10.791,35.534a2.39,2.39,0,0,1-3.381,0l-.845-.845a2.39,2.39,0,0,1,0-3.381l11.671-9.775-7.752-7.772H8.036L5.2,9.2,7.483,6.92l4.659,2.851.03,2.4,7.842,7.872,2.281-1.91A7.753,7.753,0,0,1,31.48,6.36l-5.023,4.954,4.228,4.228,5.033-4.963ZM9.368,32.5a1.2,1.2,0,1,0,0,1.692A1.2,1.2,0,0,0,9.368,32.5Z" transform="translate(-5.202 -5.785)" fill="#2c2c2c"/>
</svg>
