<svg id="_008-digital-marketing" data-name="008-digital-marketing" xmlns="http://www.w3.org/2000/svg" width="95.294" height="95.294" viewBox="0 0 95.294 95.294">
  <g id="Group_3" data-name="Group 3" transform="translate(43.608 80.006)">
    <g id="Group_2" data-name="Group 2">
      <path id="Path_38" data-name="Path 38" d="M237.478,430.4a1.86,1.86,0,1,0,.545,1.316A1.876,1.876,0,0,0,237.478,430.4Z" transform="translate(-234.301 -429.859)"/>
    </g>
  </g>
  <g id="Group_5" data-name="Group 5" transform="translate(0 47.825)">
    <g id="Group_4" data-name="Group 4">
      <path id="Path_39" data-name="Path 39" d="M55.648,272.514v-13.7a1.861,1.861,0,0,0-2.557-1.727L21.02,270.009H10.69a10.69,10.69,0,0,0,0,21.38h1.23v11.177a1.861,1.861,0,0,0,1.861,1.861h7.6a1.861,1.861,0,0,0,1.861-1.861V292.286l29.851,12.006a1.861,1.861,0,0,0,2.556-1.727v-13.7a8.387,8.387,0,0,0,0-16.356ZM19.519,300.7H15.643v-9.316h3.876V300.7Zm0-13.038H10.691a6.967,6.967,0,1,1,0-13.935H19.52ZM51.926,299.81h0L23.243,288.274V273.126l20.367-8.2v18.471a1.861,1.861,0,1,0,3.722,0v-19.97l4.594-1.85Zm3.722-14.84v-8.556a4.665,4.665,0,0,1,0,8.556Z" transform="translate(-0.001 -256.958)"/>
    </g>
  </g>
  <g id="Group_7" data-name="Group 7" transform="translate(67.531 69.754)">
    <g id="Group_6" data-name="Group 6">
      <path id="Path_40" data-name="Path 40" d="M375.234,374.775H364.7a1.861,1.861,0,1,0,0,3.722h10.538a1.861,1.861,0,1,0,0-3.722Z" transform="translate(-362.835 -374.775)"/>
    </g>
  </g>
  <g id="Group_9" data-name="Group 9" transform="translate(64.476 55.57)">
    <g id="Group_8" data-name="Group 8">
      <path id="Path_41" data-name="Path 41" d="M353.231,299.115a1.862,1.862,0,0,0-2.632,0l-3.635,3.635a1.861,1.861,0,0,0,2.632,2.632l3.635-3.635A1.862,1.862,0,0,0,353.231,299.115Z" transform="translate(-346.418 -298.57)"/>
    </g>
  </g>
  <g id="Group_11" data-name="Group 11" transform="translate(64.491 80.007)">
    <g id="Group_10" data-name="Group 10">
      <path id="Path_42" data-name="Path 42" d="M353.433,434.166l-3.756-3.757a1.861,1.861,0,1,0-2.632,2.632L350.8,436.8a1.861,1.861,0,0,0,2.632-2.632Z" transform="translate(-346.499 -429.864)"/>
    </g>
  </g>
  <g id="Group_13" data-name="Group 13" transform="translate(10.051)">
    <g id="Group_12" data-name="Group 12">
      <path id="Path_43" data-name="Path 43" d="M131.8,0H97.181a7.453,7.453,0,0,0-7.445,7.445v.744H58.468A4.472,4.472,0,0,0,54,12.656V42.063a4.472,4.472,0,0,0,4.467,4.467h1.923v5.708a1.861,1.861,0,0,0,3.177,1.316l7.024-7.024h36.971a4.472,4.472,0,0,0,4.467-4.467V36.48H131.8a7.453,7.453,0,0,0,7.445-7.445V7.445A7.453,7.453,0,0,0,131.8,0ZM108.307,42.063a.745.745,0,0,1-.744.744H69.821a1.861,1.861,0,0,0-1.316.545l-4.392,4.392V44.669a1.861,1.861,0,0,0-1.861-1.861H58.468a.745.745,0,0,1-.744-.744V12.656a.745.745,0,0,1,.744-.744H89.736V29.035a7.453,7.453,0,0,0,7.445,7.445h11.126Zm27.215-13.028a3.727,3.727,0,0,1-3.722,3.722H97.181a3.727,3.727,0,0,1-3.722-3.722V7.445a3.727,3.727,0,0,1,3.722-3.722H131.8a3.727,3.727,0,0,1,3.722,3.722Z" transform="translate(-54.001)"/>
    </g>
  </g>
  <g id="Group_15" data-name="Group 15" transform="translate(62.487 9.024)">
    <g id="Group_14" data-name="Group 14">
      <path id="Path_44" data-name="Path 44" d="M351.266,56.09l-12.738-7.354a1.861,1.861,0,0,0-2.792,1.612V65.056a1.861,1.861,0,0,0,2.792,1.612l12.738-7.354a1.861,1.861,0,0,0,0-3.223Zm-11.807,5.742V53.571l7.154,4.131Z" transform="translate(-335.736 -48.486)"/>
    </g>
  </g>
  <g id="Group_17" data-name="Group 17" transform="translate(19.452 19.543)">
    <g id="Group_16" data-name="Group 16">
      <path id="Path_45" data-name="Path 45" d="M124.985,105H106.373a1.861,1.861,0,1,0,0,3.722h18.612a1.861,1.861,0,0,0,0-3.722Z" transform="translate(-104.512 -105)"/>
    </g>
  </g>
  <g id="Group_19" data-name="Group 19" transform="translate(38.064 29.965)">
    <g id="Group_18" data-name="Group 18">
      <path id="Path_46" data-name="Path 46" d="M207.688,161.545a1.86,1.86,0,1,0,.545,1.316A1.874,1.874,0,0,0,207.688,161.545Z" transform="translate(-204.511 -161)"/>
    </g>
  </g>
  <g id="Group_21" data-name="Group 21" transform="translate(19.452 29.965)">
    <g id="Group_20" data-name="Group 20">
      <path id="Path_47" data-name="Path 47" d="M118,161H106.373a1.861,1.861,0,1,0,0,3.722H118A1.861,1.861,0,0,0,118,161Z" transform="translate(-104.512 -161)"/>
    </g>
  </g>
</svg>
