<svg id="_003-film-editing" data-name="003-film-editing" xmlns="http://www.w3.org/2000/svg" width="90.778" height="84.629" viewBox="0 0 90.778 84.629">
  <path id="Path_63" data-name="Path 63" d="M70.666,43.625H12.053l3.438-3.084a1.489,1.489,0,0,0,.578-.519l4.191-3.759a1.5,1.5,0,0,0,.617-.553l4.159-3.719a1.491,1.491,0,0,0,.654-.588l4.115-3.692a1.488,1.488,0,0,0,.694-.621l4.076-3.658a1.491,1.491,0,0,0,.732-.655l4.039-3.625a1.48,1.48,0,0,0,.769-.688l4-3.59a1.481,1.481,0,0,0,.8-.722l5.97-5.356a1.326,1.326,0,0,0,0-2.02L45.231,1.7A5.341,5.341,0,0,0,40.175.741a1.656,1.656,0,0,0-.291.012,1.579,1.579,0,0,0-.83.5,4.308,4.308,0,0,0-.617.448L5.744,31.026a1.733,1.733,0,0,0-.15.134L1.4,34.923a3.978,3.978,0,0,0,0,6.059L6.68,45.718v35.1a4.567,4.567,0,0,0,4.8,4.292H67.466a4.567,4.567,0,0,0,4.8-4.292V45.056a1.522,1.522,0,0,0-1.6-1.431ZM58.7,53.639l3.428-7.153h2.918l-3.428,7.153Zm-6.4,0,3.428-7.153h2.918l-3.428,7.153Zm-6.4,0,3.428-7.153h2.917l-3.428,7.153Zm-6.4,0,3.428-7.153h2.92l-3.428,7.153Zm-19.2,0,3.428-7.153H26.65l-3.428,7.153Zm-6.4,0,3.428-7.153h2.918l-3.428,7.153Zm-4.027,0V46.486h3.974l-3.428,7.153Zm.74-22.932,2.269,8.118-2.159,1.94-2.27-8.121Zm4.8-4.3,2.27,8.117-2.159,1.937-2.273-8.117Zm4.8-4.3,2.27,8.118-2.16,1.937-2.269-8.118Zm4.8-4.3,2.27,8.118-2.159,1.937-2.278-8.118Zm4.8-4.3,2.27,8.117-2.159,1.937-2.269-8.117Zm4.8-4.3,2.269,8.118-2.159,1.937-2.289-8.118ZM30.131,46.486h2.917l-3.426,7.153H26.7Zm6.4,0h2.919l-3.428,7.153H33.1Zm31.992,0h.544v7.153H65.094ZM47.5,7.778l-3.2,2.861L42.264,3.37a1.624,1.624,0,0,1,.7.344Zm-8.1-2.885,2.269,8.119L39.5,14.949l-2.27-8.119ZM3.667,36.943l2.156-1.934,2.2,7.857-4.353-3.9a1.326,1.326,0,0,1,0-2.02Zm63.8,45.306H11.479a1.522,1.522,0,0,1-1.6-1.431V56.5H69.066V80.819a1.522,1.522,0,0,1-1.6,1.431Zm0,0" transform="translate(-0.001 -0.481)"/>
  <path id="Path_64" data-name="Path 64" d="M96,366.959l-15.869-6.612a1.322,1.322,0,0,0-1.831,1.22v13.224a1.322,1.322,0,0,0,1.831,1.221L96,369.4a1.322,1.322,0,0,0,0-2.441Zm-15.056,5.849V363.55l11.108,4.629Zm0,0" transform="translate(-63.62 -298.097)"/>
  <path id="Path_65" data-name="Path 65" d="M234.664,351.711H216.151a1.322,1.322,0,1,0,0,2.645h18.514a1.322,1.322,0,1,0,0-2.645Zm0,0" transform="translate(-174.234 -292.676)"/>
  <path id="Path_66" data-name="Path 66" d="M234.664,385.844H216.151a1.322,1.322,0,1,0,0,2.645h18.514a1.322,1.322,0,1,0,0-2.645Zm0,0" transform="translate(-174.234 -321.071)"/>
  <path id="Path_67" data-name="Path 67" d="M234.664,419.977H216.151a1.322,1.322,0,1,0,0,2.645h18.514a1.322,1.322,0,1,0,0-2.645Zm0,0" transform="translate(-174.234 -348.572)"/>
  <path id="Path_68" data-name="Path 68" d="M234.664,454.109H216.151a1.323,1.323,0,1,0,0,2.645h18.514a1.323,1.323,0,0,0,0-2.645Zm0,0" transform="translate(-174.234 -377.415)"/>
  <path id="Path_69" data-name="Path 69" d="M147.886,18.91a1.323,1.323,0,0,0-1.323,1.323v1.322a1.322,1.322,0,1,0,2.645,0,1.322,1.322,0,1,0,0-2.645Zm0,0" transform="translate(-120.021 -16.054)"/>
  <path id="Path_70" data-name="Path 70" d="M308.946,18.91H275.886a1.322,1.322,0,1,0,0,2.645h31.738V63.872h-11.9a1.322,1.322,0,1,0,0,2.645h13.224a1.322,1.322,0,0,0,1.323-1.322V20.232a1.323,1.323,0,0,0-1.323-1.323Zm0,0" transform="translate(-219.49 -16.054)"/>
  <path id="Path_71" data-name="Path 71" d="M146.563,182.366v6.612a1.322,1.322,0,0,0,2.645,0v-6.612a1.322,1.322,0,1,0-2.645,0Zm0,0" transform="translate(-120.088 -150.467)"/>
  <path id="Path_72" data-name="Path 72" d="M201.854,54.366a1.323,1.323,0,0,0-1.323-1.323h-3.967a1.322,1.322,0,1,0,0,2.645h2.645v11.9H182.017a1.322,1.322,0,1,0,0,2.645h18.514a1.322,1.322,0,0,0,1.323-1.322Zm0,0" transform="translate(-146.55 -44.897)"/>
  <path id="Path_73" data-name="Path 73" d="M335.619,70.235h18.514a1.322,1.322,0,0,0,1.322-1.322V54.366a1.322,1.322,0,0,0-1.322-1.323H335.619a1.322,1.322,0,0,0-1.322,1.323V68.913A1.322,1.322,0,0,0,335.619,70.235Zm1.323-14.547H352.81v11.9H336.942Zm0,0" transform="translate(-269.967 -44.898)"/>
  <path id="Path_74" data-name="Path 74" d="M200.531,190.3a1.322,1.322,0,0,0,1.323-1.322v-6.612a1.323,1.323,0,0,0-1.323-1.323H182.018a1.323,1.323,0,0,0-1.323,1.323v6.612a1.322,1.322,0,0,0,2.645,0v-5.29h15.87v5.29a1.322,1.322,0,0,0,1.322,1.322Zm0,0" transform="translate(-146.551 -150.466)"/>
  <path id="Path_75" data-name="Path 75" d="M334.3,188.978a1.322,1.322,0,0,0,2.645,0v-5.29H352.81v11.9H346.2a1.322,1.322,0,1,0,0,2.645h7.935a1.322,1.322,0,0,0,1.322-1.322V182.366a1.322,1.322,0,0,0-1.322-1.323H335.618a1.322,1.322,0,0,0-1.322,1.323Zm0,0" transform="translate(-269.967 -150.13)"/>
</svg>
