<svg xmlns="http://www.w3.org/2000/svg" width="105.728" height="89.638" viewBox="0 0 105.728 89.638">
  <path id="Path_62" data-name="Path 62" d="M0,58.012V84.789c0,6.27,5.771,10.86,12.04,10.86H66.922c6.27,0,10.7-4.592,10.7-10.86V84.43L97.831,94.469a2.027,2.027,0,0,0,1.04.288c3.939,0,6.856-3.207,6.856-7.3V52.805c0-4.093-2.75-7.3-6.689-7.3A2.031,2.031,0,0,0,98,45.794L78,55.889a11.332,11.332,0,0,0-10.59-9.221A22.5,22.5,0,1,0,32.595,22,17.035,17.035,0,0,0,3.466,34.009a16.719,16.719,0,0,0,5.646,12.94A11.686,11.686,0,0,0,0,58.012Zm99.2-7.078a1.86,1.86,0,0,1,1.176,1.872V87.457A1.864,1.864,0,0,1,99.2,89.332l-21.578-10.9V61.775Zm-63.408-9.9a20.954,20.954,0,0,0,5.019,5.1H31.926A15.981,15.981,0,0,0,35.789,41.028Zm1.188-12.491a17.26,17.26,0,1,1,.517,4.1,16.889,16.889,0,0,0-.446-2.71C37.011,29.468,36.978,29.006,36.978,28.538ZM20.517,22.316a11.709,11.709,0,0,1,11.221,8.426,22.371,22.371,0,0,0,.446,2.711c.008.186.028.368.028.557A11.695,11.695,0,1,1,20.517,22.316ZM72.269,84.279A6.017,6.017,0,0,1,66.252,90.3H11.37a6.017,6.017,0,0,1-6.017-6.017V57.5a6.017,6.017,0,0,1,6.017-6.017H66.252A6.017,6.017,0,0,1,72.269,57.5Z" transform="translate(0 -6.011)"/>
</svg>
