<svg id="_007-feature" data-name="007-feature" xmlns="http://www.w3.org/2000/svg" width="103.76" height="96.842" viewBox="0 0 103.76 96.842">
  <path id="Path_48" data-name="Path 48" d="M6.917,83.258h3.459V79.8H6.917A3.458,3.458,0,0,1,3.459,76.34V7.167A3.458,3.458,0,0,1,6.917,3.709h76.09a3.458,3.458,0,0,1,3.459,3.459v3.459h3.459V7.167A6.918,6.918,0,0,0,83.008.25H6.917A6.918,6.918,0,0,0,0,7.167V76.34A6.918,6.918,0,0,0,6.917,83.258Zm0,0" transform="translate(0 -0.25)"/>
  <path id="Path_49" data-name="Path 49" d="M62.5,62.75h3.459v3.459H62.5Zm0,0" transform="translate(-55.583 -55.833)"/>
  <path id="Path_50" data-name="Path 50" d="M125,62.75h3.459v3.459H125Zm0,0" transform="translate(-111.165 -55.833)"/>
  <path id="Path_51" data-name="Path 51" d="M187.5,62.75h3.459v3.459H187.5Zm0,0" transform="translate(-166.748 -55.833)"/>
  <path id="Path_52" data-name="Path 52" d="M125,201.34a6.918,6.918,0,0,0,6.917,6.917h76.09a6.918,6.918,0,0,0,6.917-6.917V132.167a6.918,6.918,0,0,0-6.917-6.917h-76.09A6.918,6.918,0,0,0,125,132.167Zm3.459-69.173a3.458,3.458,0,0,1,3.459-3.459h76.09a3.458,3.458,0,0,1,3.459,3.459V201.34a3.458,3.458,0,0,1-3.459,3.459h-76.09a3.458,3.458,0,0,1-3.459-3.459Zm0,0" transform="translate(-111.165 -111.415)"/>
  <path id="Path_53" data-name="Path 53" d="M187.5,187.75h3.459v3.459H187.5Zm0,0" transform="translate(-166.748 -166.998)"/>
  <path id="Path_54" data-name="Path 54" d="M250,187.75h3.459v3.459H250Zm0,0" transform="translate(-222.331 -166.998)"/>
  <path id="Path_55" data-name="Path 55" d="M312.5,187.75h3.459v3.459H312.5Zm0,0" transform="translate(-277.914 -166.998)"/>
  <path id="Path_56" data-name="Path 56" d="M187.5,250.25h76.09v3.459H187.5Zm0,0" transform="translate(-166.748 -222.581)"/>
  <path id="Path_57" data-name="Path 57" d="M187.5,328.375h13.835v3.459H187.5Zm0,0" transform="translate(-166.748 -292.059)"/>
  <path id="Path_58" data-name="Path 58" d="M187.5,390.875h10.376v3.459H187.5Zm0,0" transform="translate(-166.748 -347.642)"/>
  <path id="Path_59" data-name="Path 59" d="M433.98,453.375a12.105,12.105,0,1,0,12.105,12.105A12.1,12.1,0,0,0,433.98,453.375Zm0,20.752a8.647,8.647,0,1,1,8.647-8.647A8.647,8.647,0,0,1,433.98,474.127Zm0,0" transform="translate(-375.183 -403.224)"/>
  <path id="Path_60" data-name="Path 60" d="M336.588,335.231a1.729,1.729,0,0,0-1.729-1.729h-4.571a21.981,21.981,0,0,0-1.368-3.3l3.232-3.23a1.731,1.731,0,0,0,0-2.446l-7.338-7.338a1.731,1.731,0,0,0-2.446,0l-3.23,3.231a22.364,22.364,0,0,0-3.3-1.366v-4.571a1.729,1.729,0,0,0-1.729-1.729H303.731A1.729,1.729,0,0,0,302,314.479v4.571a22.365,22.365,0,0,0-3.3,1.366l-3.23-3.231a1.731,1.731,0,0,0-2.446,0l-7.337,7.338a1.731,1.731,0,0,0,0,2.446l3.23,3.23c-.144.283-.284.567-.415.854a22.391,22.391,0,0,0-.951,2.449h-4.571a1.729,1.729,0,0,0-1.729,1.729v10.376a1.729,1.729,0,0,0,1.729,1.729h4.571a22.008,22.008,0,0,0,1.368,3.3l-3.232,3.23a1.731,1.731,0,0,0,0,2.446l7.337,7.338a1.731,1.731,0,0,0,2.446,0l3.23-3.23a22.378,22.378,0,0,0,3.3,1.366v4.571a1.729,1.729,0,0,0,1.729,1.729h10.376a1.729,1.729,0,0,0,1.729-1.729v-4.571a22.377,22.377,0,0,0,3.3-1.366l3.23,3.23a1.731,1.731,0,0,0,2.446,0l7.338-7.338a1.731,1.731,0,0,0,0-2.446l-3.232-3.23a21.985,21.985,0,0,0,1.368-3.3h4.571a1.729,1.729,0,0,0,1.729-1.729Zm-3.459,8.647h-4.14a1.729,1.729,0,0,0-1.674,1.3,18.908,18.908,0,0,1-2.023,4.89,1.73,1.73,0,0,0,.266,2.1l2.924,2.925-4.891,4.893-2.926-2.926a1.73,1.73,0,0,0-2.1-.266,18.888,18.888,0,0,1-4.89,2.023,1.729,1.729,0,0,0-1.3,1.674v4.14h-6.917v-4.14a1.729,1.729,0,0,0-1.3-1.674,18.888,18.888,0,0,1-4.89-2.023,1.73,1.73,0,0,0-2.1.266l-2.926,2.926-4.891-4.893,2.924-2.925a1.73,1.73,0,0,0,.266-2.1,18.9,18.9,0,0,1-2.023-4.89,1.729,1.729,0,0,0-1.674-1.3h-4.14v-6.917h4.14a1.729,1.729,0,0,0,1.674-1.3,18.78,18.78,0,0,1,1.124-3.169,19.109,19.109,0,0,1,.9-1.729,1.731,1.731,0,0,0-.266-2.1l-2.924-2.926,4.891-4.893,2.926,2.927a1.729,1.729,0,0,0,2.1.265,18.909,18.909,0,0,1,4.89-2.023,1.729,1.729,0,0,0,1.3-1.673v-4.134h6.917v4.14a1.729,1.729,0,0,0,1.3,1.674,18.886,18.886,0,0,1,4.89,2.023,1.73,1.73,0,0,0,2.1-.266l2.926-2.926,4.891,4.893-2.924,2.926a1.73,1.73,0,0,0-.266,2.1,18.911,18.911,0,0,1,2.023,4.891,1.729,1.729,0,0,0,1.674,1.3h4.14Zm0,0" transform="translate(-250.122 -278.164)"/>
  <path id="Path_61" data-name="Path 61" d="M781.25,781.5h10.376v3.458H781.25Zm0,0" transform="translate(-694.784 -695.034)"/>
</svg>
