<svg id="subject" xmlns="http://www.w3.org/2000/svg" width="94.467" height="94.467" viewBox="0 0 94.467 94.467">
  <g id="Group_24" data-name="Group 24" transform="translate(46.052 18.309)">
    <g id="Group_23" data-name="Group 23">
      <path id="Path_76" data-name="Path 76" d="M292.939,130.185h-13.7V103.524a1.384,1.384,0,0,0-1.384-1.384H260.637v-.786a2.122,2.122,0,0,0-3.359-1.724l-6.8,4.876a2.122,2.122,0,0,0,0,3.448l6.8,4.876a2.122,2.122,0,0,0,3.359-1.724v-.664h10.3v19.742H257.883a5.08,5.08,0,0,0-5.074,5.074v28.322a1.384,1.384,0,1,0,2.768,0V135.259a2.309,2.309,0,0,1,2.306-2.306h35.056a2.309,2.309,0,0,1,2.306,2.306v35.056a2.309,2.309,0,0,1-2.306,2.306H257.883a2.309,2.309,0,0,1-2.306-2.306v-.83a1.384,1.384,0,1,0-2.768,0v.83a5.08,5.08,0,0,0,5.074,5.074h35.056a5.08,5.08,0,0,0,5.074-5.074V135.259A5.08,5.08,0,0,0,292.939,130.185Zm-35.069-20.337-5.042-3.618,5.042-3.618Zm18.6,20.337H273.7V109.06a1.384,1.384,0,0,0-1.384-1.384H260.637v-2.768H276.47Z" transform="translate(-249.598 -99.231)"/>
    </g>
  </g>
  <g id="Group_26" data-name="Group 26" transform="translate(12.721 6.361)">
    <g id="Group_25" data-name="Group 25">
      <path id="Path_77" data-name="Path 77" d="M88.344,46.918,80.586,35.412a2.122,2.122,0,0,0-3.519,0L69.309,46.918a2.122,2.122,0,0,0,1.759,3.308H86.585a2.122,2.122,0,0,0,1.759-3.308Zm-16.062.54,6.544-9.706,6.544,9.706Z" transform="translate(-68.945 -34.476)"/>
    </g>
  </g>
  <g id="Group_28" data-name="Group 28" transform="translate(62.528 54.207)">
    <g id="Group_27" data-name="Group 27">
      <path id="Path_78" data-name="Path 78" d="M356.513,300.58l-5.727-5.726a3.611,3.611,0,0,0-5.106,0l-5.726,5.726a3.611,3.611,0,0,0,0,5.106l5.727,5.726h0a3.611,3.611,0,0,0,5.106,0l5.726-5.727a3.611,3.611,0,0,0,0-5.106Zm-1.957,3.149-5.726,5.727a.843.843,0,0,1-1.192,0h0l-5.727-5.727a.843.843,0,0,1,0-1.192l5.726-5.726a.842.842,0,0,1,1.192,0l5.727,5.726a.842.842,0,0,1,0,1.192Z" transform="translate(-338.897 -293.796)"/>
    </g>
  </g>
  <g id="Group_30" data-name="Group 30">
    <g id="Group_29" data-name="Group 29">
      <path id="Path_79" data-name="Path 79" d="M47.2,67.435,40.41,62.559a2.122,2.122,0,0,0-3.359,1.724v.663h-10.3V45.2H40.13A5.08,5.08,0,0,0,45.2,40.13V11.762a1.384,1.384,0,1,0-2.768,0V40.13a2.309,2.309,0,0,1-2.306,2.306H5.074A2.309,2.309,0,0,1,2.768,40.13V5.074A2.309,2.309,0,0,1,5.074,2.768H40.13a2.309,2.309,0,0,1,2.306,2.306V5.95a1.384,1.384,0,1,0,2.768,0V5.074A5.08,5.08,0,0,0,40.13,0H5.074A5.08,5.08,0,0,0,0,5.074V40.13A5.08,5.08,0,0,0,5.074,45.2H18.451V71.865a1.384,1.384,0,0,0,1.384,1.384h3.782a1.384,1.384,0,0,0,0-2.768h-2.4V45.2h2.768V66.33a1.384,1.384,0,0,0,1.384,1.384H37.051v2.768H29.475a1.384,1.384,0,0,0,0,2.768h7.576v.786a2.12,2.12,0,0,0,3.359,1.724l6.8-4.876a2.122,2.122,0,0,0,0-3.448Zm-7.386,5.342V65.541l5.042,3.618Z"/>
    </g>
  </g>
  <g id="Group_32" data-name="Group 32" transform="translate(9.225 25.355)">
    <g id="Group_31" data-name="Group 31">
      <path id="Path_80" data-name="Path 80" d="M75.369,137.42H51.384a1.384,1.384,0,0,0,0,2.768H75.369a1.384,1.384,0,0,0,0-2.768Z" transform="translate(-50 -137.42)"/>
    </g>
  </g>
  <g id="Group_34" data-name="Group 34" transform="translate(9.225 30.89)">
    <g id="Group_33" data-name="Group 33">
      <path id="Path_81" data-name="Path 81" d="M75.369,167.42H51.384a1.384,1.384,0,0,0,0,2.768H75.369a1.384,1.384,0,0,0,0-2.768Z" transform="translate(-50 -167.42)"/>
    </g>
  </g>
  <g id="Group_36" data-name="Group 36" transform="translate(9.225 36.425)">
    <g id="Group_35" data-name="Group 35">
      <path id="Path_82" data-name="Path 82" d="M75.369,197.42H51.384a1.384,1.384,0,0,0,0,2.768H75.369a1.384,1.384,0,0,0,0-2.768Z" transform="translate(-50 -197.42)"/>
    </g>
  </g>
  <g id="Group_38" data-name="Group 38" transform="translate(58.488 74.725)">
    <g id="Group_37" data-name="Group 37">
      <path id="Path_83" data-name="Path 83" d="M342.37,405H318.384a1.384,1.384,0,0,0,0,2.768H342.37a1.384,1.384,0,0,0,0-2.768Z" transform="translate(-317 -405)"/>
    </g>
  </g>
  <g id="Group_40" data-name="Group 40" transform="translate(58.488 80.26)">
    <g id="Group_39" data-name="Group 39">
      <path id="Path_84" data-name="Path 84" d="M342.37,435H318.384a1.384,1.384,0,0,0,0,2.768H342.37a1.384,1.384,0,0,0,0-2.768Z" transform="translate(-317 -435)"/>
    </g>
  </g>
  <g id="Group_42" data-name="Group 42" transform="translate(58.488 85.795)">
    <g id="Group_41" data-name="Group 41">
      <path id="Path_85" data-name="Path 85" d="M342.37,465H318.384a1.384,1.384,0,0,0,0,2.768H342.37a1.384,1.384,0,0,0,0-2.768Z" transform="translate(-317 -465)"/>
    </g>
  </g>
</svg>
