<svg xmlns="http://www.w3.org/2000/svg" width="100.302" height="97.288" viewBox="0 0 100.302 97.288">
  <path id="_002-layers" data-name="002-layers" d="M82.677,39.376,100.3,29.306,50.152.825,0,29.306l17.624,10.07L0,49.383l17.624,10.07L0,69.461,50.152,98.113,100.3,69.461,82.677,59.453,100.3,49.383ZM50.152,5.023,92.926,29.315,50.152,53.755,7.376,29.315ZM21.309,41.48,50.152,57.958,78.994,41.48l13.932,7.912L50.152,73.832,7.376,49.392ZM92.926,69.47,50.152,93.91,7.376,69.47l13.934-7.912L50.152,78.036,78.994,61.558Z" transform="translate(0 -0.825)"/>
</svg>
