<svg xmlns="http://www.w3.org/2000/svg" xmlns:xlink="http://www.w3.org/1999/xlink" width="273.28" height="102.027" viewBox="0 0 273.28 102.027">
  <defs>
    <radialGradient id="radial-gradient" cx="0.77" cy="0.52" r="0.659" gradientTransform="matrix(0.319, 0.567, -0.216, 0.808, 0.637, -0.337)" gradientUnits="objectBoundingBox">
      <stop offset="0" stop-color="#00dc3a"/>
      <stop offset="0.522" stop-color="#09973d"/>
      <stop offset="1" stop-color="#115240"/>
    </radialGradient>
  </defs>
  <g id="_1561740715024" transform="translate(0)">
    <path id="Path_1" data-name="Path 1" d="M2885,2618.014a10.453,10.453,0,0,1,5.627,1.125,8.615,8.615,0,0,1,3.042,2.376,10.393,10.393,0,0,1,2.041,3.458,14.6,14.6,0,0,1-.208,10.044,7.421,7.421,0,0,1-.708,1.418c-2.75,5-9.586,6.5-14.712,3.75a9.664,9.664,0,0,1-2.377-1.876c-4.375-4.335-4.292-13.878,1-18.046A10.525,10.525,0,0,1,2885,2618.014Zm32.675-37.719-4.292.166c-1.209,0-1.5.125-2.125.125h-1.208c-.5,0-.626.083-1.042.083a6.45,6.45,0,0,1-.126-1.835c.377-.123,3.792-2.875,4.335-3.291l4.376-3.335a14.392,14.392,0,0,1,1.25-1,11.8,11.8,0,0,1,1.167.792C2919.921,2572.752,2917.712,2579.628,2917.67,2580.3Zm-13.962-3.709c0,.5.126.542.126,1.042l.083,2.375a11.058,11.058,0,0,0,.125,1.167c0,1.583.167,3,.167,4.667l6.335-.292c.876,0,1.417-.083,2.167-.083,2.917,0,5.71-.292,8.669-.292a5.749,5.749,0,0,1,.25-.917l.833-2.875c.416-1.251,3.125-10.92,3.375-11.42a42.72,42.72,0,0,1-3.584-2.46c-.333-.167-.542-.374-.875-.582-.292-.209-.584-.418-.918-.668-.583-.416-1.207-.875-1.833-1.249l-9.254,7.294c-.666.458-1.208.958-1.874,1.416C2906.835,2574.211,2904.334,2576.252,2903.708,2576.586Zm10.754,75.02h10.127V2610.1h-10.127Zm-8.086-58.348c1.709,0,3.71-.209,5.334-.293,1.125-.083,2-.041,3.334-.207l4.377-.209a5.845,5.845,0,0,0,.96-.083c.416-.041.792.042,1.167,0,.625-.083,1.541-.125,2.167-.167.748-.125.956.042,1.582.626,1.46,1.418,4.169,3.583,5.461,4.877l3.083,2.751h-14.8c-5.042,0-9.711.083-14.755.083,0-.625-.292-1.125-.292-1.834a5.846,5.846,0,0,0,1.251-.626c.458-.208.792-.416,1.207-.623C2906.458,2596.007,2906.376,2594.8,2906.376,2593.258Zm-5.168-4.711c0,2.167.167,4.042.167,6.168l-2.917,1.542a5.719,5.719,0,0,0,.208,1.167c.083.376.126.708.208,1.167l1.333,7.043c6.793,0,13.254-.125,20.006-.125h20.173l1.207-3.208a4.974,4.974,0,0,0,.417-1.167,17.005,17.005,0,0,1-1.875-1.625,9.254,9.254,0,0,1-.918-.834l-6.96-6.168c-1.5-1.251-3.333-3.042-4.667-4.126l-.917-.834c-.875-.709-.792-.25-2.167-.25-.708,0-1.083.083-1.668.083Zm-68.436,33.469a10.114,10.114,0,0,0,2.251,7,13.724,13.724,0,0,0,5,3.584c3.542,1.46,4.669,1.584,7.919,2.709a19.826,19.826,0,0,1,4.5,1.917c2.417,1.708,2.208,4.335.833,5.543-2.459,2.208-7.668,1.333-10.587.625a23.624,23.624,0,0,1-7.334-3.417c-.418-.333-.793-.626-1.21-.918l-3.5,7.21,3.376,2.251c5.792,3.251,13.877,4.543,20.337,2.625l2.5-.876a13.256,13.256,0,0,0,3.209-1.958l1.291-1.251a10.081,10.081,0,0,0,2.252-3.792,11.69,11.69,0,0,0,.541-4.626,10.059,10.059,0,0,0-2.876-6.835,16.022,16.022,0,0,0-6.042-3.75c-2.252-.875-4.919-1.584-7.337-2.418-.623-.208-1.208-.416-1.791-.625-1.459-.458-3.792-1.708-3.792-3.5,0-2.168,1.04-3.084,3.125-3.626,3.625-.917,9.209.833,12.545,2.5a11.516,11.516,0,0,0,2.084,1l3.584-7.295c-.585-.333-1.167-.75-1.792-1.083a28.964,28.964,0,0,0-17.254-3.042,16.026,16.026,0,0,0-8.253,3.626,11.481,11.481,0,0,0-2.5,3.417A11.975,11.975,0,0,0,2832.772,2622.016Zm143.247-.209a10.262,10.262,0,0,0,2.251,7.21c3.875,4.959,13.962,5.751,17.421,8.21,2.459,1.751,2.21,4.377.834,5.543a6.3,6.3,0,0,1-3.042,1.25,15.663,15.663,0,0,1-3.959.041,30.442,30.442,0,0,1-3.586-.667,23.421,23.421,0,0,1-7.293-3.417c-.458-.333-.792-.626-1.25-.918l-3.5,7.21a2.07,2.07,0,0,1,.791.543,19.758,19.758,0,0,0,2.585,1.708,26.385,26.385,0,0,0,3.96,1.834c4.625,1.709,11.543,2.25,16.379.833a14.409,14.409,0,0,0,7.418-4.584,10.856,10.856,0,0,0,2.375-6.293v-.417a10.859,10.859,0,0,0-.875-5.211,11.381,11.381,0,0,0-4.709-5,26.874,26.874,0,0,0-3.293-1.625c-2.292-.875-4.958-1.584-7.334-2.418-1.834-.583-5.586-1.709-5.586-4.125,0-2.168,1-3.084,3.084-3.626,3.835-.958,10.086,1.042,13.587,3.042a3.305,3.305,0,0,0,1.042.459l3.625-7.295c-.624-.333-1.166-.75-1.833-1.083-6.293-3.5-14.963-4.459-21.756-1.749a9.288,9.288,0,0,0-1.917,1c-.333.208-.584.375-.876.584a8.261,8.261,0,0,0-2.251,2.25A11.433,11.433,0,0,0,2976.02,2621.807Zm-214.765-12.3c0,1.25-.126,2.167-.126,3.417h10.753V2641.1a9.453,9.453,0,0,1-1.833,5.5,9.268,9.268,0,0,1-4.292,3c-3.794,1.334-9.462.875-12.755-1.042a13.089,13.089,0,0,1-4.125-3.877c-.334-.458-.292-.5-.585-.584a5.655,5.655,0,0,1-.5,1c-.167.332-.334.583-.542,1l-2.167,3.958a16.677,16.677,0,0,0-1.083,2.043,18.484,18.484,0,0,0,3.125,3.125c5.376,4.293,13.586,5.752,20.547,3.793a21.778,21.778,0,0,0,8.043-4.169,19.094,19.094,0,0,0,2.875-3.125,18.9,18.9,0,0,0,3.418-10.126v-38.719c-2.917,0-5.543-.084-8.5-.084h-12.253Zm35.967,21.548a13.679,13.679,0,0,1,1.792-7.087c3.751-7.168,16.714-7.709,20.381,1.543,1.5,3.751,1.375,9.086-.708,12.419l-1.251,1.793a11.75,11.75,0,0,1-11.377,3.459C2800.3,2641.854,2797.222,2636.853,2797.222,2631.06Zm-10.336-.208a35,35,0,0,0,.5,4.792,19.889,19.889,0,0,0,3.085,7.5,20.315,20.315,0,0,0,2.416,2.959,8.656,8.656,0,0,1,.709.583,19.6,19.6,0,0,0,5.751,3.583c8.126,3.21,19.212,2.043,25.34-4.125a20.024,20.024,0,0,0,4.292-6.335,23.218,23.218,0,0,0-.958-19.8l-1.542-2.333a15.307,15.307,0,0,0-1.961-2.126c-7.584-7.626-23.881-7.669-31.466.042a9.711,9.711,0,0,0-1.292,1.334,16.97,16.97,0,0,0-3.085,5,20.45,20.45,0,0,0-1.291,4.085A30.082,30.082,0,0,0,2786.885,2630.852Zm151.917-.584a13.146,13.146,0,0,1,.958-5.584,10.391,10.391,0,0,1,2.043-3.292,11.147,11.147,0,0,1,3.041-2.334,11.439,11.439,0,0,1,5.585-1.042,9.787,9.787,0,0,1,4.335,1.083,8.168,8.168,0,0,1,1.708,1.043,9.519,9.519,0,0,1,2,2.083,13.7,13.7,0,0,1,.5,14.295,9.658,9.658,0,0,1-2.583,2.918,11.474,11.474,0,0,1-11.044,1.25,9.7,9.7,0,0,1-3.334-2.292,10.081,10.081,0,0,1-2.209-3.417A12.264,12.264,0,0,1,2938.8,2630.267Zm10.877,36.76h-.541a30.721,30.721,0,0,1-10.045-1.75,27.153,27.153,0,0,1-3.042-1.251,4.463,4.463,0,0,1-.458-.208l-2.293-1.249a12.107,12.107,0,0,0-1.707-1l4.084-7.419a21.192,21.192,0,0,0,3.542,2.167,19.29,19.29,0,0,0,6.378,1.958c1.208.167,2.291.167,2.625.21a15.843,15.843,0,0,0,4.875-.584,10.946,10.946,0,0,0,3.835-1.833c4.252-3.5,3.792-6.835,3.792-12.837l-1.708,2a13.3,13.3,0,0,1-4.292,2.917,15.894,15.894,0,0,1-2.709.917,21.535,21.535,0,0,1-4.96.458c-.542-.083-1.083,0-1.667-.083-3.834-.584-5.877-1.208-9.129-3.626a15.628,15.628,0,0,1-3.5-3.708,21.755,21.755,0,0,1-2.208-4.251,26.126,26.126,0,0,1-1.374-8.461,21.941,21.941,0,0,1,2.958-11.336,11.2,11.2,0,0,1,1-1.459,9.494,9.494,0,0,1,1.709-1.875,14.587,14.587,0,0,1,4.917-3.377,4.069,4.069,0,0,1,.918-.333c6.041-2.208,12.877-1.5,17.795,2.625,1,.877,2,2.334,2.251,2.5V2610.1h10.17v38.219a19.978,19.978,0,0,1-1.917,8.168c-.25.542-.585,1.083-.875,1.585a16.744,16.744,0,0,1-3.46,3.958,16.26,16.26,0,0,1-3.042,2.084,18.414,18.414,0,0,1-3.418,1.542A26.726,26.726,0,0,1,2949.68,2667.027Zm-63.017,0h-2.585a31.106,31.106,0,0,1-13.169-3.459l-3.543-2c.668-1.25,1.376-2.5,2.043-3.71.208-.333.333-.624.541-.958l1.5-2.751c.293.208.542.417.875.625a5.73,5.73,0,0,0,.833.5,16.367,16.367,0,0,0,1.835,1.041c6.418,3.209,16.963,3.375,20.255-3.251.083-.167.166-.292.249-.5l.208-.459c1.127-3.042.793-5.627.793-8.961-.083.083.041-.042-.125.167a13.205,13.205,0,0,1-4.043,3.834,14.114,14.114,0,0,1-4.377,1.875,23.929,23.929,0,0,1-4.877.542c-.5-.084-1.083-.042-1.666-.084a25.93,25.93,0,0,1-4.417-.958,17.047,17.047,0,0,1-7.044-4.627c-.208-.208-.208-.292-.415-.5a21.114,21.114,0,0,1-2.21-3.251,23.108,23.108,0,0,1-2.375-11.128,21.907,21.907,0,0,1,2.251-9.711,20.5,20.5,0,0,1,2.875-4.168c.458-.458.833-.708,1.292-1.167l1.291-1.042a18.466,18.466,0,0,1,11-3.125,15.277,15.277,0,0,1,10.545,3.877,5.464,5.464,0,0,1,1.207,1.208l1.085,1.251V2610.1h10.169v37.927a22.264,22.264,0,0,1-.542,4.543c-1.333,5.875-5,9.794-10.335,12.378a28.694,28.694,0,0,1-5.794,1.666A20.665,20.665,0,0,1,2886.663,2667.027Z" transform="translate(-2744 -2565)" fill-rule="evenodd" fill="url(#radial-gradient)"/>
    <g id="Group_1" data-name="Group 1" transform="translate(264.571 45.846)">
      <path id="Path_2" data-name="Path 2" d="M9096.376,3665a4.314,4.314,0,1,1-4.377,4.293A4.321,4.321,0,0,1,9096.376,3665Zm0,.875a3.405,3.405,0,0,1,3.414,3.418,3.416,3.416,0,0,1-6.832,0A3.432,3.432,0,0,1,9096.376,3665.875Z" transform="translate(-9091.999 -3665)" fill="#267b4b" fill-rule="evenodd"/>
      <text id="R" transform="translate(2.967 4.261)" fill="#267b4b" font-size="3" font-family="Arial-BoldMT, Arial" font-weight="700"><tspan x="0" y="0">R</tspan></text>
    </g>
  </g>
</svg>
